<?xml version="1.0" encoding="UTF-8"?>
<svg width="64px" height="64px" viewBox="0 0 64 64" version="1.1" xmlns="http://www.w3.org/2000/svg" xmlns:xlink="http://www.w3.org/1999/xlink">
    <!-- Generator: Sketch 59.1 (86144) - https://sketch.com -->
    <title>Outlined / Icon</title>
    <desc>Created with Sketch.</desc>
    <g id="Outlined-/-Icon" stroke="none" stroke-width="1" fill="none" fill-rule="evenodd">
        <g id="icon" transform="translate(1.000000, 16.000000)" stroke="#FFFFFF">
            <polygon id="Stroke-1" stroke-linecap="round" stroke-linejoin="round" points="0.656382335 32.9575886 58.1187175 32.9575886 58.1187175 4.62263807 0.656382335 4.62263807"></polygon>
            <polyline id="Stroke-3" stroke-linecap="round" stroke-linejoin="round" points="4.59441379 0.687774785 62.0567489 0.687774785 62.0567489 29.0227253"></polyline>
            <path d="M21.2623243,8.00609584 L8.39854325,8.00609584 C8.39854325,8.00871908 8.39985602,8.01134232 8.39985602,8.01396557 C8.39985602,10.4588273 6.42939625,12.4380635 3.98896673,12.4669192 L3.98896673,25.0047052 C6.44908772,25.0099517 8.44186449,27.0023041 8.44186449,29.4615937 C8.44186449,29.5009423 8.43136237,29.5363561 8.43136237,29.5743931 L21.3371518,29.5743931" id="Stroke-7" stroke-linecap="round" stroke-linejoin="round"></path>
            <path d="M37.1936425,29.5747866 L50.2202063,29.5747866 C50.2202063,29.5446193 50.2110169,29.5157636 50.2110169,29.486908 C50.2110169,27.0236836 52.2090448,25.0273963 54.6731041,25.0273963 C54.6783551,25.0273963 54.6822934,25.0287079 54.6875445,25.0287079 L54.6875445,12.4909218 C54.6691658,12.4909218 54.6507871,12.4961683 54.6310956,12.4961683 C52.1670363,12.4961683 50.1690085,10.499881 50.1690085,8.03796823 C50.1690085,8.02616364 50.1729468,8.01698229 50.1729468,8.00648933 L37.1936425,8.00648933" id="Stroke-9" stroke-linecap="round" stroke-linejoin="round"></path>
            <path d="M40.2409631,18.789851 C40.2409631,24.7590386 35.3811083,29.5976088 29.3870248,29.5976088 C23.3942541,29.5976088 18.5330865,24.7590386 18.5330865,18.789851 C18.5330865,12.8206634 23.3942541,7.98209317 29.3870248,7.98209317 C35.3811083,7.98209317 40.2409631,12.8206634 40.2409631,18.789851 Z" id="Stroke-11" stroke-linecap="square"></path>
            <g id="$" transform="translate(26.500000, 12.000000)" stroke-linecap="round" stroke-linejoin="round">
                <path d="M5.3088,4.3816675 C5.3088,2.8416675 4.2723,2.0401675 2.9523,2.0401675 C1.6323,2.0401675 0.5628,2.8416675 0.5628,4.3816675 C0.5628,5.9216675 1.3578,6.2419175 2.9523,7.1711675 C4.5438,8.0986675 5.3403,8.4189175 5.3403,9.9589175 C5.3403,11.4971675 4.2723,12.2811675 2.9523,12.2811675 C1.6323,12.2811675 0.5628,11.4971675 0.5628,9.9589175" id="Stroke-1"></path>
                <line x1="2.952" y1="0.6560925" x2="2.952" y2="1.8758425" id="Stroke-3"></line>
                <line x1="2.952" y1="12.4463675" x2="2.952" y2="13.6643675" id="Stroke-5"></line>
            </g>
        </g>
    </g>
</svg>