<?xml version="1.0" encoding="UTF-8"?>
<svg width="20px" height="18px" viewBox="0 0 20 18" version="1.1" xmlns="http://www.w3.org/2000/svg" xmlns:xlink="http://www.w3.org/1999/xlink">
    <!-- Generator: Sketch 63.1 (92452) - https://sketch.com -->
    <title>Group 44</title>
    <desc>Created with Sketch.</desc>
    <g id="Page-1" stroke="none" stroke-width="1" fill="none" fill-rule="evenodd">
        <g id="Deposit-Liquidity" transform="translate(-293.000000, -238.000000)">
            <g id="Group-44" transform="translate(293.000000, 237.000000)">
                <rect id="Rectangle" x="0" y="0" width="20" height="20"></rect>
                <g id="Group-31" transform="translate(0.000000, 2.173913)">
                    <g id="借呗-copy-4" transform="translate(10.000000, 11.956522) scale(-1, 1) translate(-10.000000, -11.956522) translate(0.000000, 6.956522)" fill="#173DC9" fill-rule="nonzero">
                        <path d="M19.1931848,2.67685317 C16.9526051,2.1012838 15.0755864,0.985341748 14.2279673,0.61018646 C13.1306588,0.124886249 12.4996029,0.516604682 9.96047245,1.07850946 C7.42134198,1.64082831 6.32568979,1.70335419 6.32568979,1.70335419 C5.96088647,2.31660471 6.43252209,3.31536249 7.27392997,3.57747429 C8.11533784,3.8395861 11.210576,3.54683248 12.0151309,3.42136663 C12.4035367,3.36049707 12.4540543,3.82716373 11.9940128,4.28927554 C11.5012592,4.78451365 10.2470149,5.19983458 9.30498589,5.47892361 C7.94183888,5.88265031 6.00933367,5.29548675 6.00933367,5.29548675 C6.00933367,5.29548675 3.32610382,3.81598362 1.58448888,3.42136663 C-0.157540135,3.02633558 0.00395056052,4.51453434 0.00395056052,4.51453434 C0.00395056052,4.51453434 3.25736676,6.62799193 4.27103136,7.16919277 C5.28469599,7.71080769 6.84121775,9.14724664 8.22217015,9.04331289 C9.60312254,8.93937915 14.5600584,7.6524226 15.6503276,7.7940375 C16.1343856,7.85697747 16.889251,8.05283669 17.6002241,8.22219486 C17.6200999,8.22674974 17.6399757,8.23171867 17.6598514,8.23627353 C17.7178225,8.25490707 17.7770357,8.27312654 17.8412179,8.27312654 C18.0532262,8.27312654 18.23128,8.15718452 18.3397686,7.99155304 C18.3641993,7.94517623 18.3886299,7.89258823 18.4130606,7.84124248 C18.9269322,6.76049712 19.4490854,4.60935838 19.6967045,3.50790907 C19.7795202,3.13937906 19.55716,2.77043495 19.1931848,2.67685317 Z" id="Path"></path>
                    </g>
                    <polyline id="Path-47" stroke="#5890FF" stroke-width="1.73913043" stroke-linecap="round" stroke-linejoin="round" points="11.3043478 2.84628481 14.2241437 9.88581198e-14 16.9406011 2.84628481"></polyline>
                    <line x1="14.2241437" y1="0.475534635" x2="14.2241437" y2="6.56249116" id="Path-46" stroke="#5890FF" stroke-width="1.73913043" stroke-linecap="round" stroke-linejoin="round"></line>
                </g>
            </g>
        </g>
    </g>
</svg>