<?xml version="1.0" encoding="UTF-8"?>
<svg width="20px" height="19px" viewBox="0 0 20 19" version="1.1" xmlns="http://www.w3.org/2000/svg" xmlns:xlink="http://www.w3.org/1999/xlink">
    <!-- Generator: Sketch 63.1 (92452) - https://sketch.com -->
    <title>礼物 (1)</title>
    <desc>Created with Sketch.</desc>
    <g id="Page-1" stroke="none" stroke-width="1" fill="none" fill-rule="evenodd">
        <g id="Withdraw-System-Reward" transform="translate(-293.000000, -238.000000)" fill="#173DC9" fill-rule="nonzero">
            <g id="礼物-(1)" transform="translate(293.000000, 238.000000)">
                <path d="M9.69130452,9.10591634 L1.15830485,9.10591634 L1.15830485,17.013916 C1.15830485,17.6823527 1.82240804,18.2074788 2.50807699,18.2074788 L9.68684896,18.2074788 L9.68684896,9.10591634 L9.69130452,9.10591634 L9.69130452,9.10591634 Z M10.8110758,18.2118123 L17.4256388,18.2118123 C18.1114095,18.2118123 18.758077,17.6865845 18.758077,17.0182495 L18.758077,9.10591634 L10.8110758,9.10591634 L10.8110758,18.2118123 Z M9.69128418,7.98181152 L9.69128418,4.07991536 L10.8154297,4.07991536 L10.8154297,7.98181152 L19.9126587,7.98181152 L19.9126587,5.49479167 C19.9126587,4.82633464 19.3570964,4.01479085 18.6713257,4.01479085 L16.7312215,4.01479085 C17.2780965,3.48522949 17.6426595,3.05989583 17.6426595,2.20922852 C17.6426595,1.15889486 17.0046387,0.0173339844 15.2685343,0.0173339844 C12.9812012,0.0173339844 11.0758667,2.1223348 10.1774292,3.45489502 C9.2833252,2.1223348 7.31286621,0.0173339844 5.02986654,0.0173339844 C3.29376221,0.0173339844 2.85111491,1.15879313 2.85111491,2.20922852 C2.85111491,3.05989583 3.33288574,3.48956299 3.89278158,4.01479085 L1.25815837,4.01479085 C0.572387695,4.01479085 0.0168253581,4.82645671 0.0168253581,5.49479167 L0.0168253581,7.98181152 L9.69128418,7.98181152 L9.69128418,7.98181152 Z M15.268514,1.14147949 C16.0367432,1.14147949 16.5228475,1.54512533 16.5228475,2.20914714 C16.5228475,3.55456543 14.8388468,4.01468913 13.3891805,4.01468913 L11.2841797,4.01468913 C12.1653035,2.73868815 13.7190755,1.14147949 15.268514,1.14147949 Z M5.02986654,1.14147949 C6.57497152,1.14147949 8.18963623,2.73435465 9.07497152,4.01468913 L6.9699707,4.01468913 C5.52030436,4.01468913 3.97513068,3.53725179 3.97513068,2.18747965 C3.97084554,1.52781169 4.25730387,1.14147949 5.02986654,1.14147949 L5.02986654,1.14147949 Z" id="Shape"></path>
            </g>
        </g>
    </g>
</svg>