<?xml version="1.0" encoding="UTF-8"?>
<svg width="48px" height="48px" viewBox="0 0 48 48" version="1.1" xmlns="http://www.w3.org/2000/svg" xmlns:xlink="http://www.w3.org/1999/xlink">
    <!-- Generator: Sketch 63.1 (92452) - https://sketch.com -->
    <title>系统 (1)</title>
    <desc>Created with Sketch.</desc>
    <g id="Page-1" stroke="none" stroke-width="1" fill="none" fill-rule="evenodd">
        <g id="Deposit-Liquidity" transform="translate(-890.000000, -127.000000)" fill="#FFAA60" fill-rule="nonzero">
            <g id="系统-(1)" transform="translate(890.000000, 127.000000)">
                <path d="M24,0 C37.2552,0 48,10.7448 48,24 C48,37.2552 37.2552,48 24,48 C10.7448,48 0,37.2552 0,24 C0,10.7448 10.7448,0 24,0 Z M22.32,25.32 L14.58,25.32 C13.8957415,25.32 13.2395084,25.5918206 12.7556645,26.0756645 C12.2718206,26.5595084 12,27.2157415 12,27.9 L12,33.42 C12,34.8448947 13.1551053,36 14.58,36 L20.1,36 C21.5248947,36 22.68,34.8448947 22.68,33.42 L22.68,25.68 C22.68,25.513055 22.5652693,25.3679973 22.4028,25.3296 L22.32,25.32 L22.32,25.32 Z M33.42,25.32 L25.68,25.32 L25.5972,25.3296 C25.4347307,25.3679973 25.32,25.513055 25.32,25.68 L25.32,33.42 L25.326,33.6048 C25.4229433,34.9547535 26.5465701,36.0003289 27.9,36.0000001 L33.42,36.0000001 C34.8448947,36.0000001 36,34.8448947 36,33.42 L36,27.9 C36,26.4751053 34.8448947,25.32 33.42,25.32 L33.42,25.32 Z M20.1,12 L14.58,12 C13.1551053,12 12,13.1551053 12,14.58 L12,20.1 L12.006,20.2848 C12.1029433,21.6347535 13.2265701,22.6803289 14.58,22.6800001 L22.32,22.6800001 L22.4028,22.6704 C22.5652693,22.6320027 22.68,22.486945 22.68,22.32 L22.68,14.58 C22.68,13.1551053 21.5248947,12 20.1,12 Z M33.42,12 L27.9,12 C26.4751053,12 25.32,13.1551053 25.32,14.58 L25.32,22.32 C25.32,22.5188225 25.4811775,22.68 25.68,22.68 L33.42,22.68 C34.8448947,22.68 36,21.5248947 36,20.1 L36,14.58 C36,13.1551053 34.8448947,12 33.42,12 Z" id="Shape"></path>
            </g>
        </g>
    </g>
</svg>