<?xml version="1.0" encoding="UTF-8"?>
<svg width="48px" height="48px" viewBox="0 0 48 48" version="1.1" xmlns="http://www.w3.org/2000/svg" xmlns:xlink="http://www.w3.org/1999/xlink">
    <!-- Generator: Sketch 63.1 (92452) - https://sketch.com -->
    <title>Group</title>
    <desc>Created with Sketch.</desc>
    <g id="Page-1" stroke="none" stroke-width="1" fill="none" fill-rule="evenodd">
        <g id="Deposit-Liquidity" transform="translate(-309.000000, -127.000000)">
            <g id="Group" transform="translate(309.000000, 127.000000)">
                <circle id="Oval" fill="#1741D4" cx="24" cy="24" r="24"></circle>
                <g id="我" transform="translate(12.000000, 9.750000)" fill="#FFFFFF" fill-rule="nonzero">
                    <path d="M17.8933888,22.9088986 C22.6503786,20.1718891 24.9960624,14.5023607 23.6004642,9.11487141 C22.2048659,3.7273821 17.4200725,-0.0188919574 11.9590071,7.16666928e-05 C6.49794172,0.0191797153 1.73834267,3.79872301 0.378848302,9.19581585 C-0.980646065,14.5929087 1.40294264,20.245952 6.17814681,22.9497348 L3.66743695,27.4223797 C3.46885122,27.8030681 3.46885122,28.2596148 3.66743695,28.6403032 C3.88029644,29.0188952 4.27599434,29.2516931 4.70373665,29.2499907 L19.4078186,29.2499907 C19.8355609,29.2516931 20.2312589,29.0188952 20.4441183,28.6403032 C20.6427041,28.2596148 20.6427041,27.8030681 20.4441183,27.4223797 L17.8933888,22.9088986 Z M16.4589983,16.5248302 C15.3933147,17.9111067 13.7624287,18.72077 12.0357678,18.72077 C10.3091069,18.72077 8.67822088,17.9111067 7.61253728,16.5248302 C7.32174401,16.1860235 7.23792016,15.7111233 7.39459343,15.2900791 C7.55126669,14.8690349 7.92285947,14.5705841 8.36074288,14.5141003 C8.79862628,14.4576166 9.23131391,14.6523212 9.4857403,15.0203365 C10.1020932,15.8165674 11.0417477,16.2810678 12.0361188,16.2810678 C13.03049,16.2810678 13.9701445,15.8165674 14.5864974,15.0203365 C14.995338,14.4956006 15.7420983,14.4048258 16.2603039,14.8168717 C16.5153518,15.011631 16.6809772,15.3045892 16.7185289,15.62738 C16.7560806,15.9501709 16.6622732,16.2745542 16.4589983,16.5248302 L16.4589983,16.5248302 Z" id="Shape"></path>
                </g>
            </g>
        </g>
    </g>
</svg>