<?xml version="1.0" encoding="UTF-8"?>
<svg width="20px" height="18px" viewBox="0 0 20 18" version="1.1" xmlns="http://www.w3.org/2000/svg" xmlns:xlink="http://www.w3.org/1999/xlink">
    <!-- Generator: Sketch 63.1 (92452) - https://sketch.com -->
    <title>Group 41</title>
    <desc>Created with Sketch.</desc>
    <g id="Page-1" stroke="none" stroke-width="1" fill="none" fill-rule="evenodd">
        <g id="Withdraw-Liquidity" transform="translate(-293.000000, -238.000000)">
            <g id="Group-41" transform="translate(293.000000, 237.000000)">
                <rect id="Rectangle-Copy-29" x="0" y="0" width="20" height="20"></rect>
                <g id="Group-38" transform="translate(0.000000, 2.173913)">
                    <g id="借呗-copy-6" transform="translate(10.000000, 8.000000) scale(-1, 1) translate(-10.000000, -8.000000) ">
                        <g id="Group-34">
                            <path d="M19.1931848,9.63337491 C16.9526051,9.05780554 15.0755864,7.94186349 14.2279673,7.5667082 C13.1306588,7.08140799 12.4996029,7.47312642 9.96047245,8.0350312 C7.42134198,8.59735005 6.32568979,8.65987593 6.32568979,8.65987593 C5.96088647,9.27312645 6.43252209,10.2718842 7.27392997,10.533996 C8.11533784,10.7961078 11.210576,10.5033542 12.0151309,10.3778884 C12.4035367,10.3170188 12.4540543,10.7836855 11.9940128,11.2457973 C11.5012592,11.7410354 10.2470149,12.1563563 9.30498589,12.4354453 C7.94183888,12.8391721 6.00933367,12.2520085 6.00933367,12.2520085 C6.00933367,12.2520085 3.32610382,10.7725054 1.58448888,10.3778884 C-0.157540135,9.98285732 0.00395056052,11.4710561 0.00395056052,11.4710561 C0.00395056052,11.4710561 3.25736676,13.5845137 4.27103136,14.1257145 C5.28469599,14.6673294 6.84121775,16.1037684 8.22217015,15.9998346 C9.60312254,15.8959009 14.5600584,14.6089443 15.6503276,14.7505592 C16.1343856,14.8134992 16.889251,15.0093584 17.6002241,15.1787166 C17.6200999,15.1832715 17.6399757,15.1882404 17.6598514,15.1927953 C17.7178225,15.2114288 17.7770357,15.2296483 17.8412179,15.2296483 C18.0532262,15.2296483 18.23128,15.1137063 18.3397686,14.9480748 C18.3641993,14.901698 18.3886299,14.84911 18.4130606,14.7977642 C18.9269322,13.7170189 19.4490854,11.5658801 19.6967045,10.4644308 C19.7795202,10.0959008 19.55716,9.72695669 19.1931848,9.63337491 Z" id="Path" fill="#173DC9" fill-rule="nonzero"></path>
                            <line x1="5.96327409" y1="0.394030582" x2="5.96327409" y2="6.4809871" id="Path-46-Copy" stroke="#5890FF" stroke-width="1.73913043" stroke-linecap="round" stroke-linejoin="round" transform="translate(5.963274, 3.437509) scale(-1, 1) rotate(-180.000000) translate(-5.963274, -3.437509) "></line>
                            <polyline id="Path-47-Copy" stroke="#5890FF" stroke-width="1.73913043" stroke-linecap="round" stroke-linejoin="round" transform="translate(5.861605, 5.533379) scale(-1, 1) rotate(-180.000000) translate(-5.861605, -5.533379) " points="3.04347826 6.95652174 5.96327409 4.11023693 8.67973154 6.95652174"></polyline>
                        </g>
                    </g>
                    <g id="Group-32" transform="translate(14.130435, 4.347826) rotate(-180.000000) translate(-14.130435, -4.347826) translate(11.304348, 0.869565)"></g>
                </g>
            </g>
        </g>
    </g>
</svg>