<?xml version="1.0" encoding="UTF-8"?>
<svg width="19px" height="25px" viewBox="0 0 19 25" version="1.1" xmlns="http://www.w3.org/2000/svg" xmlns:xlink="http://www.w3.org/1999/xlink">
    <!-- Generator: Sketch 59.1 (86144) - https://sketch.com -->
    <title>Icons / Bank / Outline Copy</title>
    <desc>Created with Sketch.</desc>
    <g id="Symbols" stroke="none" stroke-width="1" fill="none" fill-rule="evenodd">
        <g id="Menu-sidebar" transform="translate(-52.000000, -500.000000)" stroke="#FFFFFF">
            <g id="Outlined-/-Icon" transform="translate(49.000000, 500.000000)">
                <g id="icon" transform="translate(3.515625, 0.781250)">
                    <path d="M17.1341819,14.0530339 L1.07842966,14.0530339 C1.03884915,14.0530339 1.00707324,14.0206957 1.00707324,13.9809821 L1.00707324,12.2131622 C1.00707324,12.1734487 1.03884915,12.1411105 1.07842966,12.1411105 L17.1341819,12.1411105 C17.173205,12.1411105 17.2049809,12.1734487 17.2049809,12.2131622 L17.2049809,13.9809821 C17.2049809,14.0206957 17.173205,14.0530339 17.1341819,14.0530339 Z" id="Stroke-1" stroke-linecap="round"></path>
                    <path d="M17.8626307,23.6717104 L0.349646465,23.6717104 C0.310623422,23.6717104 0.278847515,23.6393722 0.278847515,23.5996587 L0.278847515,21.8125493 C0.278847515,21.7813458 0.298916509,21.752979 0.328462527,21.7439016 L9.08467589,18.9299135 C9.09861269,18.9253748 9.11366443,18.9253748 9.12760124,18.9299135 L17.8838146,21.7439016 C17.9139181,21.752979 17.9334296,21.7813458 17.9334296,21.8125493 L17.9334296,23.5996587 C17.9334296,23.6393722 17.9016537,23.6717104 17.8626307,23.6717104 Z" id="Stroke-3" stroke-linecap="round"></path>
                    <polygon id="Stroke-6" stroke-linecap="round" points="7.9997238 4.70474981 10.0333818 4.70474981 10.0333818 2.79225911 7.9997238 2.79225911"></polygon>
                    <path d="M2.11047766,12.1410538 C2.11047766,8.03410621 5.24235559,4.70497675 9.10619431,4.70497675 C12.970033,4.70497675 16.101911,8.03410621 16.101911,12.1410538" id="Stroke-7" stroke-linecap="round"></path>
                    <line x1="9.01683154" y1="0.283781622" x2="9.01683154" y2="2.79254278" id="Stroke-9" stroke-linecap="round"></line>
                    <line x1="9.10613856" y1="14.0530339" x2="9.10613856" y2="18.9877251" id="Stroke-11"></line>
                    <line x1="11.5219437" y1="14.0530339" x2="11.5219437" y2="19.6991648" id="Stroke-13"></line>
                    <line x1="13.93747" y1="14.0530339" x2="13.93747" y2="20.5280432" id="Stroke-15"></line>
                    <line x1="16.3535538" y1="14.0530339" x2="16.3535538" y2="21.2513969" id="Stroke-17"></line>
                    <line x1="6.6906122" y1="14.0530339" x2="6.6906122" y2="19.6991648" id="Stroke-19"></line>
                    <line x1="4.27480711" y1="14.0530339" x2="4.27480711" y2="20.5280432" id="Stroke-21"></line>
                    <line x1="1.85900202" y1="14.0530339" x2="1.85900202" y2="21.2513969" id="Stroke-23"></line>
                    <polyline id="Stroke-25" stroke-width="0.75" stroke-linecap="round" stroke-linejoin="round" points="6.57242813 22.3010259 7.46215351 21.2974079 8.24986151 22.3010259 9.10613856 20.9042439 9.95293859 22.3010259 10.7094282 21.2514537 11.5216649 22.3010259"></polyline>
                </g>
            </g>
        </g>
    </g>
</svg>