<?xml version="1.0" encoding="UTF-8"?>
<svg width="24px" height="20px" viewBox="0 0 24 20" version="1.1" xmlns="http://www.w3.org/2000/svg" xmlns:xlink="http://www.w3.org/1999/xlink">
    <!-- Generator: Sketch 59.1 (86144) - https://sketch.com -->
    <title>twitter icon</title>
    <desc>Created with Sketch.</desc>
    <g id="Symbols" stroke="none" stroke-width="1" fill="none" fill-rule="evenodd">
        <g id="Menu-sidebar" transform="translate(-49.000000, -736.000000)" fill="#FFFFFF">
            <g id="Group-15" transform="translate(49.000000, 736.000000)">
                <g id="twitter-icon">
                    <path d="M23.4693406,2.28058462 C22.9394612,2.51278605 22.3894053,2.69597292 21.8249875,2.82859378 C22.4469112,2.24455634 22.9145168,1.51404984 23.1783227,0.698672892 C23.253621,0.465896851 22.9977811,0.264609645 22.7850851,0.389243373 C21.999889,0.849509009 21.1541054,1.19479443 20.2711669,1.4156185 C20.2199407,1.42843239 20.1670865,1.43492553 20.1140579,1.43492553 C19.9532276,1.43492553 19.7968745,1.37591269 19.6738969,1.26880468 C18.7344991,0.450612125 17.526295,0 16.2719234,0 C15.7291357,0 15.1811149,0.0836063047 14.643037,0.248520459 C12.9758909,0.759524492 11.6895393,2.11854354 11.2859518,3.79526654 C11.134541,4.42418132 11.0935485,5.05367071 11.1640208,5.666209 C11.172103,5.73659919 11.1384368,5.78572867 11.1176788,5.80877068 C11.0812217,5.84916603 11.0295304,5.87232296 10.9758621,5.87232296 C10.9698731,5.87232296 10.9637097,5.87203566 10.9576044,5.87146104 C7.30828023,5.53640375 4.0174808,3.79894407 1.6913724,0.979199339 C1.5727557,0.83537351 1.34529073,0.853014153 1.25074624,1.01327394 C0.795234854,1.78555485 0.554512725,2.66885115 0.554512725,3.56766202 C0.554512725,4.94512617 1.11451147,6.24323616 2.08722657,7.18956759 C1.67817339,7.09372201 1.28226107,6.94277097 0.914491155,6.74090915 C0.736566103,6.64322481 0.517648514,6.76877792 0.51514826,6.96989274 C0.489680557,9.01620733 1.70201302,10.8370435 3.51812775,11.6569599 C3.48155427,11.6578218 3.44498078,11.658224 3.40834915,11.658224 C3.12047107,11.658224 2.82898797,11.6307575 2.54209836,11.5765714 C2.34172917,11.5387618 2.17339812,11.7266031 2.23561374,11.9185815 C2.82509223,13.7372916 4.40967181,15.0778655 6.30591096,15.3822384 C4.73214643,16.4262542 2.89946025,16.9769641 0.991999029,16.9769641 L0.397345595,16.9766193 C0.214129308,16.9766193 0.0591717059,17.094645 0.0124809161,17.2700171 C-0.0335121284,17.442746 0.0512057803,17.624956 0.207442582,17.7147682 C2.35684698,18.9509348 4.80854954,19.6042706 7.29856994,19.6042706 C9.47815182,19.6042706 11.5169636,19.1768155 13.3584297,18.333857 C15.0465663,17.561059 16.5383458,16.456364 17.7923104,15.0504565 C18.9604523,13.7407967 19.8739172,12.2289304 20.5072374,10.5569192 C21.1109615,8.96311301 21.4300637,7.26248608 21.4300637,5.63885739 L21.4300637,5.56151437 C21.4300055,5.3008121 21.54932,5.05550948 21.7574807,4.88852671 C22.5473865,4.25472772 23.2352471,3.50864919 23.8018744,2.67103468 C23.9514826,2.44986584 23.7155284,2.17267216 23.4693406,2.28058462" id="Fill-1"></path>
                </g>
            </g>
        </g>
    </g>
</svg>