<?xml version="1.0" encoding="UTF-8"?>
<svg width="219px" height="194px" viewBox="0 0 219 194" version="1.1" xmlns="http://www.w3.org/2000/svg" xmlns:xlink="http://www.w3.org/1999/xlink">
    <!-- Generator: Sketch 63.1 (92452) - https://sketch.com -->
    <title>Diagrams for software development - Archbee</title>
    <desc>Created with Sketch.</desc>
    <g id="Page-1" stroke="none" stroke-width="1" fill="none" fill-rule="evenodd">
        <g id="Self-Serviced-Loan" transform="translate(-519.000000, -471.000000)" fill-rule="nonzero">
            <g id="Diagrams-for-software-development---Archbee" transform="translate(519.000000, 471.000000)">
                <polygon id="Shape" fill="#ECF3FF" points="66 134.52723 41.8437454 110 8.84374536 118.977742 0 152.477741 24.1562547 177 57.1562546 168.02723"></polygon>
                <circle id="Oval" fill="#ECF3FF" cx="180.5" cy="36.5" r="36.5"></circle>
                <path d="M134.735012,118 L134.735012,116.946014 L135.259461,116.946014 C135.724538,116.946014 136.187965,116.934469 136.649743,116.911376 L137.174192,116.911376 L137.213773,117.960414 L136.689324,117.960414 C136.217651,117.976908 135.745977,117.988454 135.274304,117.995051 L134.735012,118 Z M132.953867,118 L132.429418,118 C131.954446,117.983506 131.482772,117.960414 131.014397,117.930724 L130.489949,117.896086 L130.554268,116.847049 L131.078716,116.881687 C131.540495,116.911376 132.003922,116.934469 132.468999,116.950963 L132.993448,116.950963 L132.953867,118 Z M138.980076,117.846603 L138.886071,116.797566 L139.410519,116.753031 C139.872298,116.713445 140.334076,116.667261 140.795854,116.614479 L141.320303,116.5551 L141.439046,117.599189 L140.914598,117.658568 C140.446223,117.71135 139.976198,117.759183 139.504524,117.802068 L138.980076,117.846603 Z M128.708803,117.683309 L128.184355,117.62393 C127.712681,117.571148 127.244306,117.511769 126.779229,117.445791 L126.259728,117.371567 L126.403209,116.327478 L126.92271,116.401703 C127.38119,116.464381 127.84132,116.522111 128.303098,116.574893 L128.827546,116.634273 L128.708803,117.683309 Z M143.200401,117.307239 L143.027234,116.268099 L143.521997,116.183978 C143.980477,116.108104 144.437308,116.025633 144.892489,115.936564 L145.387252,115.837598 L145.585157,116.87179 L145.090394,116.970756 C144.628616,117.059825 144.163539,117.143946 143.695164,117.223119 L143.200401,117.307239 Z M124.498373,117.079618 L124.003611,116.980653 C123.538533,116.891583 123.075106,116.795916 122.613327,116.693652 L122.118565,116.579841 L122.341208,115.550597 L122.835971,115.664408 C123.287854,115.763374 123.741386,115.857391 124.196568,115.94646 L124.691331,116.045426 L124.498373,117.079618 Z M147.37125,116.485824 L147.118921,115.466476 L147.613684,115.342769 C148.065567,115.230608 148.514152,115.113499 148.959438,114.991441 L149.454201,114.852889 L149.731268,115.867288 L149.236505,116.00584 C148.781324,116.131197 148.324493,116.249955 147.866013,116.362116 L147.37125,116.485824 Z M120.347315,116.198823 L119.852552,116.060271 C119.39737,115.934914 118.943838,115.804609 118.491955,115.669356 L117.997192,115.515959 L118.298997,114.526301 L118.79376,114.679698 C119.235748,114.811653 119.681034,114.940309 120.129619,115.065665 L120.624381,115.204217 L120.347315,116.198823 Z M151.467885,115.387304 L151.136394,114.397646 L151.631156,114.234353 C152.073144,114.089203 152.511834,113.937455 152.947225,113.77911 L153.441988,113.600972 L153.798217,114.590629 L153.303454,114.768768 C152.858168,114.927113 152.411232,115.082159 151.962648,115.233907 L151.467885,115.387304 Z M116.275418,114.956803 L115.780655,114.778664 C115.335369,114.61702 114.891732,114.452077 114.449744,114.283836 L113.954981,114.095801 L114.335948,113.106143 L114.830711,113.294178 C115.262804,113.46242 115.698195,113.627363 116.136884,113.789006 L116.631647,113.967145 L116.275418,114.956803 Z M155.46062,113.937455 L155.054914,112.947798 L155.549677,112.744918 C155.975173,112.56678 156.399019,112.382043 156.821217,112.19071 L157.31598,111.972985 L157.746423,112.932953 L157.25166,113.150678 C156.822866,113.342011 156.390773,113.530046 155.955382,113.714782 L155.46062,113.937455 Z M112.307421,113.40304 L111.812659,113.190264 C111.380566,112.995631 110.950123,112.79605 110.521328,112.591521 L110.026566,112.3639 L110.481747,111.413828 L110.97651,111.64145 C111.395409,111.84268 111.817606,112.038962 112.243102,112.230296 L112.737865,112.448021 L112.307421,113.40304 Z M159.309873,112.185761 L158.81511,111.250535 L159.285135,111.013017 C159.697437,110.80189 160.106441,110.585815 160.512146,110.364791 L160.972275,110.112428 L161.467038,111.037758 L161.006909,111.290121 C160.591308,111.514444 160.174058,111.735467 159.755159,111.953192 L159.309873,112.185761 Z M108.458168,111.547432 L107.998039,111.29507 C107.582438,111.067448 107.170136,110.836528 106.761132,110.602309 L106.305951,110.34005 L106.830399,109.429565 L107.285581,109.691824 C107.687988,109.922744 108.093693,110.150366 108.502697,110.374688 L108.962826,110.62705 L108.458168,111.547432 Z M163.030488,110.142118 L162.481301,109.246478 L162.931535,108.969374 C163.327345,108.728557 163.718208,108.481143 164.104123,108.227131 L164.544461,107.94013 L165.118386,108.820925 L164.678047,109.107926 C164.282238,109.365237 163.883129,109.6176 163.480722,109.865014 L163.030488,110.142118 Z M104.782082,109.399875 L104.341743,109.112875 C103.945933,108.855563 103.551772,108.593304 103.15926,108.326097 L102.723869,108.029199 L103.317584,107.163249 L103.752975,107.460146 C104.135592,107.724055 104.521507,107.981366 104.91072,108.232079 L105.351059,108.51908 L104.782082,109.399875 Z M166.602674,107.786733 L165.984221,106.935628 L166.409717,106.628834 C166.785737,106.358327 167.156808,106.082873 167.522933,105.80247 L167.938534,105.485779 L168.576777,106.32204 L168.156229,106.63873 C167.780209,106.925731 167.400891,107.207783 167.018275,107.484888 L166.602674,107.786733 Z M101.294005,106.950472 L100.878404,106.633782 C100.502385,106.346781 100.129663,106.054832 99.7602405,105.757935 L99.3495878,105.4264 L100.007622,104.604984 L100.418275,104.936519 C100.781101,105.226819 101.145576,105.51217 101.511701,105.792573 L101.932249,106.109263 L101.294005,106.950472 Z M169.972008,105.19383 L169.294183,104.392207 L169.694941,104.050775 C170.047872,103.750579 170.397504,103.447084 170.743838,103.14029 L171.1347,102.788962 L171.832315,103.57574 L171.441453,103.927069 C171.088522,104.256954 170.732293,104.567047 170.372766,104.857347 L169.972008,105.19383 Z M97.9889905,104.273449 L97.5981278,103.92212 C97.2451973,103.592234 96.8972142,103.273894 96.5541787,102.9671 L96.168264,102.605875 L96.8856699,101.838891 L97.2715846,102.200116 C97.6014265,102.530002 97.944462,102.843393 98.3006908,103.14029 L98.6915534,103.491619 L97.9889905,104.273449 Z M173.118698,102.368357 L172.381502,101.621166 L172.757522,101.250044 C173.087363,100.920159 173.417205,100.590273 173.747047,100.260387 L174.108223,99.8694719 L174.86521,100.59687 L174.499086,100.977889 C174.169244,101.307775 173.839403,101.637661 173.509561,101.967546 L173.118698,102.368357 Z M94.8967241,101.353959 L94.5305994,100.97294 C94.200758,100.643054 93.8709161,100.298324 93.5410742,99.9387481 L93.1848451,99.5527818 L93.9566749,98.8798144 L94.3129041,99.2657811 C94.6262537,99.5956667 94.9429019,99.9255526 95.2628483,100.255439 L95.6289725,100.636457 L94.8967241,101.353959 Z M176.087274,99.2954706 L175.295654,98.6027105 L175.641988,98.2068474 C175.945442,97.8571683 176.245598,97.502541 176.542456,97.1429655 L176.878895,96.7372056 L177.670515,97.3953281 L177.334076,97.8010875 C177.03392,98.1672611 176.728816,98.5284861 176.418765,98.8847625 L176.087274,99.2954706 Z M92.0518385,98.2216919 L91.7154003,97.8159325 C91.4152439,97.4530579 91.1200359,97.0852352 90.829775,96.7124643 L90.5032318,96.2968081 L91.3294851,95.6485825 L91.6560284,96.0642387 C91.9429911,96.4304119 92.2332515,96.7916369 92.5268106,97.1479137 L92.8632493,97.5536731 L92.0518385,98.2216919 Z M178.788678,96.0098075 L177.942634,95.3813749 L178.254334,94.9607701 C178.531402,94.5879992 178.803521,94.2119293 179.070693,93.8325607 L179.372498,93.4020595 L180.233385,94.0106989 L179.93158,94.4412 C179.657811,94.8271663 179.380744,95.209834 179.100379,95.5892026 L178.788678,96.0098075 Z M89.4444397,94.8717012 L89.1426344,94.4412 C88.872164,94.0552333 88.6049922,93.6659683 88.3411187,93.2734039 L88.0492089,92.8379545 L88.9249386,92.2540564 L89.2168489,92.6895058 C89.4741252,93.0754726 89.7363495,93.4581402 90.0035212,93.8375088 L90.3053265,94.26801 L89.4444397,94.8717012 Z M181.232806,92.5262126 L180.342233,91.9621076 L180.624247,91.5167615 C180.871629,91.1241975 181.114063,90.7283344 181.351549,90.3291726 L181.618721,89.8788783 L182.524136,90.4182415 L182.256965,90.8685358 C182.012881,91.2742957 181.7655,91.6784056 181.514821,92.0808664 L181.232806,92.5262126 Z M87.0794742,91.3287269 L86.8123024,90.8784326 C86.5715179,90.4726727 86.335681,90.0652638 86.1047915,89.6562052 L85.8475152,89.1960146 L86.762826,88.7011858 L87.0201027,89.1613765 C87.2476935,89.5638373 87.4802318,89.9646486 87.7177181,90.3638107 L87.9848899,90.8141046 L87.0794742,91.3287269 Z M183.380076,88.8545827 L182.449922,88.3597539 L182.697303,87.8946147 C182.914999,87.4855561 183.126097,87.0715494 183.330599,86.6525946 L183.563138,86.1577658 L184.503187,86.6278528 L184.270648,87.1226816 C184.05955,87.5482346 183.843503,87.968839 183.622509,88.3844952 L183.380076,88.8545827 Z M85.0064185,87.6175108 L84.7738801,87.1226816 C84.5660798,86.7004281 84.3615781,86.2765246 84.1603746,85.8509716 L83.9377313,85.3561428 L84.892623,84.9107971 L85.1152663,85.4056259 C85.309873,85.8245808 85.5094272,86.2418865 85.7139293,86.6575428 L85.9464676,87.1523715 L85.0064185,87.6175108 Z M185.260174,85.0246078 L184.295386,84.6040029 L184.503187,84.1091742 C184.687898,83.6836216 184.867662,83.2547699 185.042478,82.8226192 L185.240383,82.3277904 L186.229908,82.7236535 L186.032003,83.2184823 C185.853889,83.6572307 185.670827,84.0943296 185.482817,84.529779 L185.260174,85.0246078 Z M83.2302209,83.7578459 L83.0323156,83.2630172 C82.8542012,82.8242687 82.6892801,82.3838712 82.537553,81.9418241 L82.3544907,81.4469954 L83.3440163,81.0758736 L83.5270782,81.5707023 C83.6887007,82.0061517 83.8536214,82.4383024 84.0218408,82.8671541 L84.2197461,83.3619828 L83.2302209,83.7578459 Z M186.843414,81.0659772 L185.853889,80.7245454 L186.027056,80.2297166 C186.178783,79.7909682 186.323913,79.3489211 186.462447,78.9035754 L186.620771,78.4087462 L187.610296,78.7254368 L187.451972,79.2202655 C187.31014,79.6722094 187.161711,80.1225037 187.006686,80.5711485 L186.843414,81.0659772 Z M81.7558282,79.7695255 L81.5975038,79.2746967 C81.4556722,78.826052 81.3187877,78.3741085 81.1868511,77.918866 L81.0433698,77.4240368 L82.032895,77.132088 L82.1813238,77.6269168 C82.3099622,78.0722629 82.4451974,78.5159591 82.5870294,78.9580062 L82.7453533,79.4528354 L81.7558282,79.7695255 Z M188.129797,76.9984843 L187.110586,76.7312768 L187.244172,76.236448 C187.359617,75.7878032 187.470113,75.3375089 187.575663,74.885565 L187.694406,74.3907363 L188.718565,74.6282543 L188.599822,75.1230831 C188.490974,75.5849233 188.377178,76.0434648 188.258435,76.4987073 L188.129797,76.9984843 Z M80.5980836,75.6921362 L80.4793403,75.1973074 C80.3704928,74.7387659 80.2682417,74.2769257 80.1725875,73.8117868 L80.0637396,73.3169581 L81.0928462,73.1041813 L81.2016937,73.5990101 C81.2973479,74.0542526 81.3979496,74.507846 81.5034989,74.9597894 L81.6222423,75.4546182 L80.5980836,75.6921362 Z M189.074794,72.8666637 L188.04074,72.6786287 L188.134745,72.1838 C188.217205,71.7285575 188.293068,71.2716655 188.362335,70.8131239 L188.441497,70.2935538 L189.480499,70.4518989 L189.401337,70.9714694 C189.328772,71.4399073 189.251259,71.9066957 189.168799,72.371835 L189.074794,72.8666637 Z M79.7322489,71.5256776 L79.6530869,71.0061075 C79.5805214,70.5409682 79.5145531,70.0725303 79.4551816,69.6007933 L79.3859151,69.0812232 L80.4298643,68.9476195 L80.4991307,69.4671895 C80.5585022,69.9290297 80.6228216,70.3875713 80.6920885,70.8428138 L80.7712505,71.3623839 L79.7322489,71.5256776 Z M189.688299,68.6606188 L188.64435,68.5517564 L188.698774,68.0272377 C188.744952,67.5686966 188.786182,67.1068564 188.822465,66.6417171 L188.862046,66.1171984 L189.910943,66.1963714 L189.871362,66.7208896 C189.835079,67.1926266 189.793849,67.6627141 189.747671,68.131152 L189.688299,68.6606188 Z M79.2078003,67.3047877 L79.1682194,66.780269 C79.1319366,66.3118311 79.1022511,65.8400945 79.0791619,65.3650589 L79.0544239,64.8405402 L80.1033206,64.786109 L80.128059,65.3106277 C80.1511477,65.7757665 80.1808337,66.2392563 80.217116,66.7010965 L80.2566974,67.2256152 L79.2078003,67.3047877 Z M189.995052,64.4199358 L188.946155,64.3951941 L188.946155,63.8706759 C188.946155,63.4088356 188.946155,62.9453459 188.946155,62.4802066 L188.946155,61.8468259 L190,61.8468259 L190,62.4802066 C190,62.9552423 190,63.4286288 190,63.9003653 L189.995052,64.4199358 Z M80.0538446,63.0542084 L79,63.0542084 L79,62.4901034 C79,62.020016 79,61.5647735 79,61.1144791 L79,60.5899609 L80.0538446,60.6147022 L80.0538446,61.1392209 C80.0538446,61.5845666 80.0538446,62.0299127 80.0538446,62.4752585 L80.0538446,63.0542084 Z M188.901627,60.1099767 L188.876888,59.5854584 C188.8538,59.1203191 188.824114,58.6584789 188.787832,58.1999374 L188.74825,57.6754191 L189.797147,57.591298 L189.836728,58.1158167 C189.873011,58.5875537 189.904346,59.0592902 189.930733,59.5310272 L189.955471,60.0555454 L188.901627,60.1099767 Z M80.142902,58.8828011 L79.1137954,58.7986804 L79.1533764,58.2741617 C79.1896592,57.8024252 79.2308894,57.3323377 79.2770672,56.8638998 L79.3314912,56.3393811 L80.3803878,56.4432954 L80.3259639,56.9678136 C80.2797861,57.4263552 80.2402051,57.8881954 80.207221,58.3533343 L80.142902,58.8828011 Z M188.565188,55.9534148 L188.495921,55.4338443 C188.43655,54.9720041 188.370582,54.513463 188.298016,54.0582205 L188.218854,53.53865 L189.257856,53.3753567 L189.337018,53.8949268 C189.409583,54.3600661 189.475551,54.828504 189.534923,55.3002406 L189.60419,55.8198111 L188.565188,55.9534148 Z M80.5980836,54.736136 L79.559082,54.5777905 L79.6382439,54.0582205 C79.7108091,53.5897826 79.7883217,53.1229937 79.8707823,52.6578549 L79.9647872,52.1630261 L80.9988413,52.3461125 L80.9048364,52.8409413 C80.8223758,53.2961838 80.746512,53.7530758 80.6772456,54.2116174 L80.5980836,54.736136 Z M187.961578,51.8364388 L187.85273,51.34161 C187.757076,50.8863675 187.656474,50.4344241 187.550925,49.9857793 L187.432182,49.4909506 L188.45634,49.2484844 L188.575083,49.7433131 C188.683931,50.2018543 188.786182,50.6636945 188.881836,51.1288337 L188.990684,51.6236625 L187.961578,51.8364388 Z M81.345175,50.634005 L80.3210164,50.396487 L80.4397593,49.9016582 C80.5453085,49.439818 80.6574551,48.9812769 80.776198,48.5260344 L80.9097839,48.0312056 L81.928995,48.2934645 L81.7954091,48.7882933 C81.6799644,49.236938 81.5694676,49.6872324 81.4639179,50.1391762 L81.345175,50.634005 Z M186.972053,47.7788426 L186.823624,47.2840139 C186.694985,46.8386681 186.55975,46.3949715 186.417918,45.9529245 L186.259594,45.4580957 L187.249119,45.1414051 L187.407444,45.6362339 C187.549275,46.0848787 187.68616,46.5368225 187.818096,46.992065 L187.966525,47.4868938 L186.972053,47.7788426 Z M82.4089146,46.6011501 L81.4193894,46.2844595 L81.5777133,45.7896308 C81.7195454,45.3376874 81.8679742,44.887393 82.0229999,44.4387483 L82.1961668,43.9439195 L83.185692,44.2853514 L83.0125251,44.7801801 C82.8542012,45.2189281 82.7090706,45.6576766 82.577134,46.0964246 L82.4089146,46.6011501 Z M185.700513,43.8103156 L185.51745,43.3154868 C185.352529,42.8800374 185.187608,42.4478869 185.022688,42.0190353 L184.824782,41.5242064 L185.814308,41.1283434 L186.012213,41.6231722 C186.190327,42.0619205 186.355248,42.5023181 186.506975,42.9443652 L186.690038,43.439194 L185.700513,43.8103156 Z M83.7794074,42.6474679 L82.7898818,42.2565531 L82.9877871,41.7617243 C83.1659015,41.3229761 83.3489638,40.8858773 83.5369737,40.450428 L83.744774,39.9555991 L84.7342992,40.3762036 L84.5264988,40.8710324 C84.3417876,41.2965852 84.1620235,41.7254368 83.9872078,42.1575874 L83.7794074,42.6474679 Z M184.122219,39.9506508 L183.899576,39.455822 C183.70497,39.036867 183.503766,38.6195613 183.295966,38.2039051 L183.063427,37.7090763 L184.003477,37.2389889 L184.236015,37.7338177 C184.447114,38.1560717 184.651616,38.579975 184.849521,39.0055278 L185.072164,39.5003566 L184.122219,39.9506508 Z M85.4467575,38.8174928 L84.5017608,38.3523538 L84.7342992,37.857525 C84.9453977,37.4319722 85.1614441,37.0097182 85.3824381,36.5907632 L85.6298194,36.1256241 L86.5599731,36.6204529 L86.3125919,37.085592 C86.0948965,37.4946505 85.8837975,37.9086572 85.6792959,38.3276123 L85.4467575,38.8174928 Z M182.252017,36.2344864 L181.99474,35.7742956 C181.767149,35.3718348 181.534611,34.9710235 181.297125,34.5718616 L181.025006,34.1215674 L181.930421,33.5624108 L182.202541,34.0127051 C182.443325,34.4184647 182.680811,34.8258738 182.914999,35.2349322 L183.172275,35.695123 L182.252017,36.2344864 Z M87.4060174,35.1310182 L86.5006017,34.5916548 L86.7677735,34.1413605 C87.0085579,33.7356009 87.2559392,33.3314907 87.5099178,32.9290299 L87.7919321,32.483684 L88.6825049,33.0428405 L88.4004905,33.4881865 C88.1531093,33.8807507 87.9106755,34.2766138 87.6731892,34.6757757 L87.4060174,35.1310182 Z M180.104747,32.6568741 L179.812837,32.2214247 C179.55556,31.8354583 179.293336,31.4544401 179.026164,31.0783702 L178.724359,30.6478691 L179.585246,30.0392297 L179.887052,30.4697307 C180.157521,30.8556972 180.424693,31.2449626 180.688567,31.6375267 L180.980477,32.0729761 L180.104747,32.6568741 Z M89.647292,31.5830956 L88.7864052,30.9794044 L89.0882105,30.5489034 C89.3586805,30.1629369 89.6357477,29.7802692 89.9194118,29.4009005 L90.231112,28.980296 L91.0771563,29.6037803 L90.7654556,30.0243848 C90.4883888,30.3971558 90.2162691,30.7732257 89.9490973,31.1525945 L89.647292,31.5830956 Z M177.715043,29.2475036 L177.3885,28.8318473 C177.101537,28.4689729 176.811277,28.1077478 176.517718,27.7481722 L176.181279,27.3424126 L176.99269,26.6694454 L177.329128,27.0752051 C177.629285,27.4380795 177.926142,27.8059023 178.219701,28.1786733 L178.546245,28.5943295 L177.715043,29.2475036 Z M92.1705819,28.2578459 L91.3591711,27.589827 L91.6956098,27.1840674 C91.9957657,26.8178941 92.3008691,26.456669 92.6109205,26.1003923 L92.9572542,25.7045292 L93.7538221,26.3923413 L93.4074884,26.7882043 C93.1040338,27.1378834 92.8038779,27.4925107 92.5070201,27.8520863 L92.1705819,28.2578459 Z M175.048273,26.0657543 L174.692043,25.6797878 C174.362202,25.3499019 174.043904,25.020016 173.737152,24.6901301 L173.371027,24.309112 L174.108223,23.5520239 L174.474348,23.9330421 C174.80419,24.2629279 175.134031,24.6076587 175.463873,24.9672343 L175.820102,25.3532008 L175.048273,26.0657543 Z M94.8967241,25.1156829 L94.1397372,24.3882846 L94.5058614,24.0072664 C94.8357033,23.6773805 95.1655447,23.3474947 95.4953866,23.0176088 L95.8714063,22.6464871 L96.6086027,23.3936787 L96.232583,23.7648003 C95.9027411,24.0946861 95.5728997,24.424572 95.2430578,24.7544579 L94.8967241,25.1156829 Z M172.129173,23.0670916 L171.743258,22.7058666 C171.413416,22.3759807 171.070381,22.0625892 170.714152,21.7656919 L170.32329,21.4143634 L171.020905,20.6275856 L171.411767,20.9789141 C171.764698,21.3087999 172.11433,21.6271398 172.460664,21.9339337 L172.846579,22.2951587 L172.129173,23.0670916 Z M97.8652996,22.1813481 L97.1627367,21.3945702 L97.5535994,21.0432418 C97.9065299,20.7133559 98.2627591,20.4032632 98.6222865,20.1129636 L99.0230442,19.7715317 L99.7008691,20.5731544 L99.3001114,20.9145863 C98.9471808,21.2147825 98.5975485,21.5182775 98.2512148,21.8250713 L97.8652996,22.1813481 Z M168.98743,20.2960503 L168.576777,19.964515 C168.213951,19.6742154 167.847827,19.3888641 167.478404,19.1084611 L167.057856,18.7917707 L167.6961,17.95551 L168.116648,18.2722004 C168.492668,18.5592011 168.865389,18.8511501 169.234812,19.1480474 L169.645465,19.4795827 L168.98743,20.2960503 Z M101.051571,19.4993759 L100.413327,18.6631152 L100.828928,18.3414764 C101.204948,18.0544758 101.582616,17.7724233 101.961935,17.4953192 L102.38743,17.1885253 L103.005884,18.0396309 L102.580388,18.3464247 C102.204368,18.6169312 101.833296,18.8940353 101.467172,19.1777372 L101.051571,19.4993759 Z M165.657678,17.7823199 L165.222286,17.4854226 C164.83967,17.2248127 164.453755,16.9675018 164.064542,16.7134897 L163.624203,16.4264889 L164.212971,15.5506419 L164.653309,15.8376426 C165.052418,16.0949536 165.446579,16.3572129 165.835792,16.6244205 L166.271183,16.9213178 L165.657678,17.7823199 Z M104.435748,17.0648181 L103.851928,16.1840228 L104.292267,15.8970221 C104.688077,15.6397111 105.087185,15.3873484 105.489592,15.139934 L105.939826,14.8628299 L106.498908,15.7485735 L106.048674,16.0256776 C105.652864,16.2664943 105.262001,16.5139087 104.876087,16.7679208 L104.435748,17.0648181 Z M162.14981,15.5259005 L161.694629,15.2636412 C161.292222,15.0327211 160.886517,14.8050999 160.477513,14.5807775 L160.017383,14.3284148 L160.512146,13.4030849 L160.972275,13.6554476 C161.387876,13.8830688 161.800178,14.113989 162.209182,14.3482079 L162.664364,14.6104672 L162.14981,15.5259005 Z M107.993091,14.8974679 L107.498328,13.972138 L107.958458,13.7197753 C108.37076,13.4954529 108.78801,13.2744294 109.210207,13.0567047 L109.680232,12.8142386 L110.174994,13.7494651 L109.70497,13.9869829 C109.292668,14.1981098 108.883664,14.4141851 108.477959,14.6352087 L107.993091,14.8974679 Z M158.458881,13.5465853 L157.964118,13.318964 C157.545219,13.1177336 157.123022,12.923101 156.697526,12.735066 L156.202763,12.5222896 L156.633207,11.5623217 L157.12797,11.7750981 C157.560062,11.9697308 157.990506,12.1693117 158.4193,12.373841 L158.914063,12.6014622 L158.458881,13.5465853 Z M111.688968,13.0072218 L111.273367,12.0472539 L111.76813,11.8295292 C112.196924,11.6348966 112.629017,11.4468616 113.064408,11.2654244 L113.559171,11.0625446 L113.964877,12.0522022 L113.470113,12.255082 C113.044618,12.4332204 112.620771,12.6179565 112.198574,12.8092903 L111.688968,13.0072218 Z M154.639313,11.8542707 L154.144551,11.6662357 C153.70916,11.4979939 153.273768,11.333051 152.838377,11.1714069 L152.343615,10.9932686 L152.694896,10.0036109 L153.189659,10.1817493 C153.634945,10.3400945 154.078582,10.5050375 154.52057,10.6765781 L155.015333,10.8646131 L154.639313,11.8542707 Z M115.553064,11.4089248 L115.196835,10.4192671 L115.691598,10.2411288 C116.133586,10.0794847 116.580522,9.9244383 117.032404,9.77598967 L117.527168,9.61269617 L117.858658,10.6023538 L117.363896,10.7656473 C116.921908,10.9107971 116.483218,11.0625446 116.047827,11.2208898 L115.553064,11.4089248 Z M150.705951,10.4539051 L150.211188,10.3054565 C149.765901,10.1735021 149.320615,10.0464961 148.875329,9.9244383 L148.380566,9.78588624 L148.657633,8.77148719 L149.152396,8.91003925 C149.607578,9.03539589 150.06111,9.16570079 150.512993,9.300954 L151.007756,9.45435093 L150.705951,10.4539051 Z M119.50127,10.1025767 L119.219256,9.11291906 L119.714018,8.974367 C120.1692,8.84901036 120.626031,8.72860202 121.084511,8.61314195 L121.579274,8.48448646 L121.831602,9.50383381 L121.33684,9.6324893 C120.884956,9.74465052 120.436372,9.86176 119.991085,9.98381778 L119.50127,10.1025767 Z M146.678583,9.37023005 L146.18382,9.25641943 C145.731936,9.15745363 145.278404,9.06508559 144.823223,8.97931526 L144.32846,8.88034951 L144.526365,7.84615729 L145.021127,7.94512304 C145.486205,8.03419222 145.949632,8.12820971 146.411411,8.22717547 L146.906173,8.34098609 L146.678583,9.37023005 Z M123.553376,9.11291906 L123.350524,8.07872684 L123.845286,7.97976109 C124.307065,7.8906919 124.772142,7.80657098 125.240517,7.72739836 L125.73528,7.63832917 L125.908447,8.6774697 L125.413684,8.76653888 C124.955204,8.84241265 124.498373,8.92488412 124.043192,9.01395331 L123.553376,9.11291906 Z M142.581948,8.61809026 L142.062447,8.5438659 C141.603967,8.4811876 141.143838,8.42345756 140.682059,8.37067583 L140.157611,8.31129639 L140.276354,7.26720756 L140.800802,7.32658704 C141.272476,7.37936877 141.740851,7.43874822 142.205928,7.50472541 L142.725429,7.57894973 L142.581948,8.61809026 Z M127.669802,8.44984845 L127.551059,7.40575962 L128.095298,7.33648361 C128.563673,7.28370188 129.033698,7.23586841 129.505371,7.19298324 L130.02982,7.14350037 L130.123824,8.19253746 L129.599376,8.24202034 C129.137597,8.2849055 128.675819,8.33273897 128.214041,8.3855207 L127.669802,8.44984845 Z M138.435837,8.16284772 L137.911388,8.12820971 C137.44961,8.09851997 136.986182,8.07542798 136.521106,8.05893366 L135.996657,8.05893366 L136.036238,7.00989657 L136.560687,7.00989657 C137.035659,7.02639089 137.507332,7.04948288 137.975707,7.07917262 L138.500156,7.11381062 L138.435837,8.16284772 Z M131.825808,8.0886234 L131.786227,7.03958631 L132.310675,7.03958631 C132.782349,7.01979318 133.254022,7.00659771 133.725696,7 L134.250145,7 L134.250145,8.0539854 L133.725696,8.0539854 C133.260619,8.0539854 132.797192,8.06553142 132.335414,8.0886234 L131.825808,8.0886234 Z" id="Shape" fill="#38B800"></path>
                <rect id="Rectangle-path" fill="#FFFFFF" x="29" y="28" width="162" height="117" rx="16"></rect>
                <path d="M183.101173,29.0495704 C186.880575,29.0549982 189.943031,32.1117428 189.948469,35.884097 L189.948469,137.115903 C189.943031,140.888257 186.880575,143.945002 183.101173,143.950429 L36.8988267,143.950429 C33.1194247,143.945002 30.0569693,140.888257 30.0515313,137.115903 L30.0515313,35.884097 C30.0569693,32.1117428 33.1194247,29.0549982 36.8988267,29.0495704 L183.101173,29.0495704 L183.101173,29.0495704 Z M183.101173,28 L36.8988267,28 C32.5364252,28 29,31.5298305 29,35.884097 L29,137.115903 C29,141.47017 32.5364252,145 36.8988267,145 L183.101173,145 C187.463575,145 191,141.47017 191,137.115903 L191,35.884097 C191,31.5298305 187.463575,28 183.101173,28 Z" id="Shape" fill="#0789EE"></path>
                <path d="M191,34.6451914 C190.983764,30.9801697 188.130169,28.0140574 184.606887,28 L35.3931129,28 C31.8698313,28.0140574 29.0162355,30.9801697 29,34.6451914 L29,39 L191,39 L191,34.6451914 Z" id="Shape" fill="#EEF5FF"></path>
                <path d="M184.606887,29.0938375 C187.553909,29.0966629 189.943028,31.5796063 189.948469,34.6451914 L189.948469,37.9061624 L30.0515313,37.9061624 L30.0515313,34.6451914 C30.0569724,31.5796063 32.4460913,29.0966629 35.3931129,29.0938375 L184.606887,29.0938375 L184.606887,29.0938375 Z M184.606887,28 L35.3931129,28 C31.8698313,28.0140574 29.0162355,30.9801697 29,34.6451914 L29,39 L191,39 L191,34.6451914 C190.983764,30.9801697 188.130169,28.0140574 184.606887,28 L184.606887,28 Z" id="Shape" fill="#0789EE"></path>
                <circle id="Oval" fill="#FF6000" cx="35.5" cy="33.5" r="1.5"></circle>
                <circle id="Oval" fill="#FCEE21" cx="38.5" cy="33.5" r="1.5"></circle>
                <circle id="Oval" fill="#39B54A" cx="42.5" cy="33.5" r="1.5"></circle>
                <path d="M8.24514501,49.1849608 L9.01698762,50.8350385 L10.7451384,51.1006854 C10.8577966,51.1081129 10.9543718,51.1880349 10.9877952,51.3014989 C11.0212185,51.4149629 10.984535,51.5383585 10.8956235,51.6115452 L9.64319956,52.8938037 L9.93931527,54.7073564 C9.9392185,54.804398 9.89238257,54.894772 9.81491124,54.9474046 C9.73743991,55 9.63989707,55.0077515 9.55582115,54.9678948 L8.00728156,54.1147586 L6.45388759,54.9678948 C6.36241667,55.0178015 6.25199666,55.0089976 6.16871442,54.9451582 C6.08543214,54.8813187 6.04360271,54.7734164 6.06068472,54.6664877 L6.35680043,52.852935 L5.10437654,51.5706765 C5.015465,51.4974897 4.97878147,51.3740941 5.01220484,51.2606302 C5.04562821,51.1471662 5.14220335,51.0672442 5.25486159,51.0598167 L6.98301237,50.7941698 L7.75485503,49.1440921 C7.80709649,49.0479324 7.90739044,48.9921505 8.01231573,49.0008968 C8.11724106,49.009643 8.20793976,49.0813455 8.24514501,49.1849608 Z" id="Shape" fill="#DCE7F7"></path>
                <circle id="Oval" fill="#DCE7F7" cx="79" cy="7" r="3"></circle>
                <polygon id="Rectangle-path" fill="#DCE7F7" transform="translate(212.698744, 141.199141) rotate(-45.000000) translate(-212.698744, -141.199141) " points="208.469184 136.96958 216.937132 136.960754 216.928305 145.428702 208.460357 145.437528"></polygon>
                <polygon id="Shape" fill="#FF6000" points="66.2955975 185 65 184.92 65.0419289 183.784 65.8259959 183.837333 66.2494759 183 67 183.613333"></polygon>
                <path d="M67.8347769,182 L67,181.414623 L68.3431045,179.144377 L69.1778814,179.729755 L67.8347769,182 Z M70.2458362,177.927811 L69.4110593,177.342434 L70.7541638,175.072189 L71.5889407,175.657566 L70.2458362,177.927811 Z M72.6568955,173.855623 L71.8221186,173.270245 L73.1652231,171 L74,171.585377 L72.6568955,173.855623 Z" id="Shape" fill="#FF6000"></path>
                <polygon id="Shape" fill="#FF6000" points="76.0289018 170 75 169.35514 75.5838153 168.474766 75.0924854 167.543925 76.1849711 167 77 168.542056"></polygon>
                <path d="M74.128363,166 L73.0122985,163.710758 L73.8839355,163.22575 L75,165.514991 L74.128363,166 Z M72.1222137,161.887125 L71.0061492,159.583333 L71.8777867,159.098324 L72.9938512,161.387566 L72.1222137,161.887125 Z M70.1160649,157.77425 L69,155.485009 L69.8716375,155 L70.9877019,157.289242 L70.1160649,157.77425 Z" id="Shape" fill="#FF6000"></path>
                <polygon id="Shape" fill="#FF6000" points="67.1757052 153 66.8069417 152.14433 66 152.092783 66.0433841 151 67.3839479 151.082474 68 152.5"></polygon>
                <path d="M63.9460122,152 L61.3447853,151.843373 L61.3987731,150.566265 L64,150.722891 L63.9460122,152 Z M59.2736198,151.716868 L56.6723925,151.560241 L56.7263802,150.283132 L59.3276075,150.439759 L59.2736198,151.716868 Z M54.6012269,151.433735 L52,151.277109 L52.0539874,150 L54.6552147,150.156627 L54.6012269,151.433735 Z" id="Shape" fill="#FF6000"></path>
                <polygon id="Shape" fill="#FF6000" points="48.747899 152 48 151.386667 48.7016805 150 50 150.08 49.957983 151.210667 49.1722687 151.162667"></polygon>
                <path d="M40.8347768,164 L40,163.414623 L41.3477682,161.144378 L42.182545,161.729755 L40.8347768,164 Z M43.2458361,159.927811 L42.4110593,159.342434 L43.7541638,157.072189 L44.5889407,157.657566 L43.2458361,159.927811 Z M45.6568955,155.855622 L44.8221186,155.270245 L46.1652231,153 L47,153.585377 L45.6568955,155.855622 Z" id="Shape" fill="#FF6000"></path>
                <polygon id="Shape" fill="#FF6000" points="38.8126801 168 38 166.457944 38.9682997 165 40 165.64486 39.4121038 166.525234 39.9020173 167.456074"></polygon>
                <path d="M45.1283626,180 L44.0122981,177.710758 L44.8839352,177.225749 L46,179.514991 L45.1283626,180 Z M43.1222136,175.887125 L42.0061491,173.597884 L42.8777863,173.112875 L43.9938508,175.402116 L43.1222136,175.887125 Z M41.1160646,171.774251 L40,169.485009 L40.8716372,169 L41.9877017,171.289241 L41.1160646,171.774251 Z" id="Shape" fill="#FF6000"></path>
                <polygon id="Shape" fill="#FF6000" points="47.9566159 184 46.6160521 183.92268 46 182.5 46.8242948 182 47.1930583 182.85567 48 182.902062"></polygon>
                <path d="M61.9460126,185 L59.3447853,184.843373 L59.3987731,183.566265 L62,183.722892 L61.9460126,185 Z M57.2736198,184.716868 L54.6723925,184.560241 L54.7263802,183.283133 L57.3276075,183.439759 L57.2736198,184.716868 Z M52.6012269,184.433735 L50,184.277109 L50.0539878,183 L52.6552147,183.156627 L52.6012269,184.433735 Z" id="Shape" fill="#FF6000"></path>
                <rect id="Rectangle-path" fill="#0789EE" x="179" y="32" width="6" height="1" rx="0.5"></rect>
                <rect id="Rectangle-path" fill="#0789EE" x="179" y="33" width="6" height="1" rx="0.5"></rect>
                <rect id="Rectangle-path" fill="#0789EE" x="179" y="34" width="6" height="1" rx="0.5"></rect>
                <path d="M96.2473721,177.167255 L97.0185905,178.810805 L98.7453443,179.075402 C98.8579116,179.0828 98.9544085,179.162406 98.9878051,179.275421 C99.0212013,179.388436 98.9845476,179.511344 98.8957076,179.584241 L97.6442964,180.861428 L97.9401727,182.667807 C97.9572408,182.774313 97.9154452,182.881788 97.8322304,182.945375 C97.7490152,183.008962 97.6386845,183.017731 97.5472878,182.968022 L96,182.11826 L94.4527122,182.968022 C94.361315,183.017731 94.2509844,183.008962 94.1677696,182.945375 C94.0845548,182.881788 94.0427592,182.774313 94.0598273,182.667807 L94.3557036,180.861428 L93.104292,179.584241 C93.0154524,179.511344 92.9787987,179.388436 93.0121949,179.275421 C93.0455911,179.162406 93.1420884,179.0828 93.2546557,179.075402 L94.9814095,178.810805 L95.7526279,177.167255 C95.7966572,177.065412 95.8934017,177 96,177 C96.1065983,177 96.2033428,177.065412 96.2473721,177.167255 Z" id="Shape" fill="#DCE7F7"></path>
                <g id="Group" opacity="0.06" transform="translate(42.000000, 51.000000)" fill="#FFFFFF" stroke="#0789EE" stroke-width="2.12598425">
                    <polygon id="Shape" points="86.835621 15.0630022 86.835621 5.02428779 78.1623961 0.00986121255 69.4842484 5.02428779 69.4842484 15.0630022 78.1623961 20.0774288"></polygon>
                    <polygon id="Shape" points="104.191916 15.0630022 104.191916 5.02428779 95.5137687 0.00986121255 86.835621 5.02428779 86.835621 15.0630022 95.5137687 20.0774288"></polygon>
                    <polygon id="Shape" points="121.543289 15.0630022 121.543289 5.02428779 112.865141 0.00986121255 104.191916 5.02428779 104.191916 15.0630022 112.865141 20.0774288"></polygon>
                    <polygon id="Shape" points="138.894661 15.0630022 138.894661 5.02428779 130.221436 0.00986121255 121.543289 5.02428779 121.543289 15.0630022 130.221436 20.0774288"></polygon>
                    <polygon id="Shape" points="95.5137687 30.1753104 95.5137687 20.1365961 86.835621 15.1221695 78.1623961 20.1365961 78.1623961 30.1753104 86.835621 35.189737"></polygon>
                    <polygon id="Shape" points="112.865141 30.1753104 112.865141 20.1365961 104.191916 15.1221695 95.5137687 20.1365961 95.5137687 30.1753104 104.191916 35.189737"></polygon>
                    <polygon id="Shape" points="130.221436 30.1753104 130.221436 20.1365961 121.543289 15.1221695 112.865141 20.1365961 112.865141 30.1753104 121.543289 35.189737"></polygon>
                    <polygon id="Shape" points="86.835621 45.3122717 86.835621 35.2784879 78.1623961 30.2591308 69.4842484 35.2784879 69.4842484 45.3122717 78.1623961 50.3316289"></polygon>
                    <polygon id="Shape" points="104.191916 45.3122717 104.191916 35.2784879 95.5137687 30.2591308 86.835621 35.2784879 86.835621 45.3122717 95.5137687 50.3316289"></polygon>
                    <polygon id="Shape" points="121.543289 45.3122717 121.543289 35.2784879 112.865141 30.2591308 104.191916 35.2784879 104.191916 45.3122717 112.865141 50.3316289"></polygon>
                    <polygon id="Shape" points="138.894661 45.3122717 138.894661 35.2784879 130.221436 30.2591308 121.543289 35.2784879 121.543289 45.3122717 130.221436 50.3316289"></polygon>
                    <polygon id="Shape" points="95.5137687 60.3752739 95.5137687 50.3414899 86.835621 45.3221332 78.1623961 50.3414899 78.1623961 60.3752739 86.835621 65.3946311"></polygon>
                    <polygon id="Shape" points="112.865141 60.3752739 112.865141 50.3414899 104.191916 45.3221332 95.5137687 50.3414899 95.5137687 60.3752739 104.191916 65.3946311"></polygon>
                    <polygon id="Shape" points="130.221436 60.3752739 130.221436 50.3414899 121.543289 45.3221332 112.865141 50.3414899 112.865141 60.3752739 121.543289 65.3946311"></polygon>
                    <polygon id="Shape" points="86.835621 75.5615413 86.835621 65.5277574 78.1623961 60.5084002 69.4842484 65.5277574 69.4842484 75.5615413 78.1623961 80.5808986"></polygon>
                    <polygon id="Shape" points="104.191916 75.5615413 104.191916 65.5277574 95.5137687 60.5084002 86.835621 65.5277574 86.835621 75.5615413 95.5137687 80.5808986"></polygon>
                    <polygon id="Shape" points="121.543289 75.5615413 121.543289 65.5277574 112.865141 60.5084002 104.191916 65.5277574 104.191916 75.5615413 112.865141 80.5808986"></polygon>
                    <polygon id="Shape" points="138.894661 75.5615413 138.894661 65.5277574 130.221436 60.5084002 121.543289 65.5277574 121.543289 75.5615413 130.221436 80.5808986"></polygon>
                    <polygon id="Shape" points="17.4252082 15.0630022 17.4252082 5.02428779 8.74706076 0.00986121255 0.068913253 5.02428779 0.068913253 15.0630022 8.74706076 20.0774288"></polygon>
                    <polygon id="Shape" points="34.7765808 15.0630022 34.7765808 5.02428779 26.1033557 0.00986121255 17.4252082 5.02428779 17.4252082 15.0630022 26.1033557 20.0774288"></polygon>
                    <polygon id="Shape" points="52.1328758 15.0630022 52.1328758 5.02428779 43.4547283 0.00986121255 34.7765808 5.02428779 34.7765808 15.0630022 43.4547283 20.0774288"></polygon>
                    <polygon id="Shape" points="69.4842484 15.0630022 69.4842484 5.02428779 60.8061008 0.00986121255 52.1328758 5.02428779 52.1328758 15.0630022 60.8061008 20.0774288"></polygon>
                    <polygon id="Shape" points="26.1033557 30.1753104 26.1033557 20.1365961 17.4252082 15.1221695 8.74706076 20.1365961 8.74706076 30.1753104 17.4252082 35.189737"></polygon>
                    <polygon id="Shape" points="43.4547283 30.1753104 43.4547283 20.1365961 34.7765808 15.1221695 26.1033557 20.1365961 26.1033557 30.1753104 34.7765808 35.189737"></polygon>
                    <polygon id="Shape" points="60.8061008 30.1753104 60.8061008 20.1365961 52.1328758 15.1221695 43.4547283 20.1365961 43.4547283 30.1753104 52.1328758 35.189737"></polygon>
                    <polygon id="Shape" points="78.1623961 30.1753104 78.1623961 20.1365961 69.4842484 15.1221695 60.8061008 20.1365961 60.8061008 30.1753104 69.4842484 35.189737"></polygon>
                    <polygon id="Shape" points="17.4252082 45.3122717 17.4252082 35.2784879 8.74706076 30.2591308 0.068913253 35.2784879 0.068913253 45.3122717 8.74706076 50.3316289"></polygon>
                    <polygon id="Shape" points="34.7765808 45.3122717 34.7765808 35.2784879 26.1033557 30.2591308 17.4252082 35.2784879 17.4252082 45.3122717 26.1033557 50.3316289"></polygon>
                    <polygon id="Shape" points="52.1328758 45.3122717 52.1328758 35.2784879 43.4547283 30.2591308 34.7765808 35.2784879 34.7765808 45.3122717 43.4547283 50.3316289"></polygon>
                    <polygon id="Shape" points="69.4842484 45.3122717 69.4842484 35.2784879 60.8061008 30.2591308 52.1328758 35.2784879 52.1328758 45.3122717 60.8061008 50.3316289"></polygon>
                    <polygon id="Shape" points="26.1033557 60.3752739 26.1033557 50.3414899 17.4252082 45.3221332 8.74706076 50.3414899 8.74706076 60.3752739 17.4252082 65.3946311"></polygon>
                    <polygon id="Shape" points="43.4547283 60.3752739 43.4547283 50.3414899 34.7765808 45.3221332 26.1033557 50.3414899 26.1033557 60.3752739 34.7765808 65.3946311"></polygon>
                    <polygon id="Shape" points="60.8061008 60.3752739 60.8061008 50.3414899 52.1328758 45.3221332 43.4547283 50.3414899 43.4547283 60.3752739 52.1328758 65.3946311"></polygon>
                    <polygon id="Shape" points="78.1623961 60.3752739 78.1623961 50.3414899 69.4842484 45.3221332 60.8061008 50.3414899 60.8061008 60.3752739 69.4842484 65.3946311"></polygon>
                    <polygon id="Shape" points="17.4252082 75.5615413 17.4252082 65.5277574 8.74706076 60.5084002 0.068913253 65.5277574 0.068913253 75.5615413 8.74706076 80.5808986"></polygon>
                    <polygon id="Shape" points="34.7765808 75.5615413 34.7765808 65.5277574 26.1033557 60.5084002 17.4252082 65.5277574 17.4252082 75.5615413 26.1033557 80.5808986"></polygon>
                    <polygon id="Shape" points="52.1328758 75.5615413 52.1328758 65.5277574 43.4547283 60.5084002 34.7765808 65.5277574 34.7765808 75.5615413 43.4547283 80.5808986"></polygon>
                    <polygon id="Shape" points="69.4842484 75.5615413 69.4842484 65.5277574 60.8061008 60.5084002 52.1328758 65.5277574 52.1328758 75.5615413 60.8061008 80.5808986"></polygon>
                </g>
                <rect id="Rectangle-path" fill="#D5E1EF" x="13" y="85" width="43" height="50" rx="4.01"></rect>
                <rect id="Rectangle-path" fill="#FFFFFF" x="8" y="80" width="43" height="50" rx="4.01"></rect>
                <path d="M48.4265829,130.999998 L46.490346,130.999998 L46.490346,129.94421 L48.9600363,129.94421 L48.9896723,130.990084 L48.4265829,130.999998 Z M44.7171083,130.999998 L42.2474182,130.999998 L42.2474182,129.94421 L44.7171083,129.94421 L44.7171083,130.999998 Z M40.4889988,130.999998 L38.0193086,130.999998 L38.0193086,129.94421 L40.4889988,129.94421 L40.4889988,130.999998 Z M36.2608892,130.999998 L33.8010778,130.999998 L33.8010778,129.94421 L36.270768,129.94421 L36.2608892,130.999998 Z M32.0327796,130.999998 L29.5630894,130.999998 L29.5630894,129.94421 L32.0327796,129.94421 L32.0327796,130.999998 Z M27.80467,130.999998 L25.3349799,130.999998 L25.3349799,129.94421 L27.80467,129.94421 L27.80467,130.999998 Z M23.5765605,130.999998 L21.1068703,130.999998 L21.1068703,129.94421 L23.5765605,129.94421 L23.5765605,130.999998 Z M19.3484509,130.999998 L16.8787607,130.999998 L16.8787607,129.94421 L19.3484509,129.94421 L19.3484509,130.999998 Z M15.1203413,130.999998 L12.6506511,130.999998 L12.6506511,129.94421 L15.1203413,129.94421 L15.1203413,130.999998 Z M10.8922317,130.999999 L9.50426586,130.999999 C9.27381856,131.000227 9.04444254,130.968535 8.82263135,130.905819 L8.32869332,130.762074 L8.61517736,129.770724 L9.10911543,129.914469 C9.23778161,129.950432 9.37070229,129.968773 9.50426586,129.968994 L10.8922317,129.968994 L10.8922317,130.999999 Z M50.8370007,129.344443 L49.7947915,129.205654 L49.8639426,128.685195 C49.8683379,128.619179 49.8683379,128.552942 49.8639426,128.486926 L49.8639426,126.811544 L50.9160307,126.811544 L50.9160307,128.486926 C50.9234017,128.599157 50.9234017,128.711753 50.9160307,128.823985 L50.8370007,129.344443 Z M8.05208799,128.75459 L7,128.75459 L7,126.276215 L8.05208799,126.276215 L8.05208799,128.75459 Z M50.930849,125.037028 L49.8787608,125.037028 L49.8787608,122.558653 L50.930849,122.558653 L50.930849,125.037028 Z M8.05208799,124.511612 L7,124.511612 L7,122.033238 L8.05208799,122.033238 L8.05208799,124.511612 Z M50.930849,120.79405 L49.8787608,120.79405 L49.8787608,118.315675 L50.930849,118.315675 L50.930849,120.79405 Z M8.04714864,120.288462 L7,120.288462 L7,117.810087 L8.05208799,117.810087 L8.04714864,120.288462 Z M50.9259093,116.570899 L49.8738215,116.570899 L49.8738215,114.092524 L50.9259093,114.092524 L50.9259093,116.570899 Z M8.04714864,116.025657 L7,116.025657 L7,113.547282 L8.05208799,113.547282 L8.04714864,116.025657 Z M50.9259093,112.308095 L49.8738215,112.308095 L49.8738215,109.82972 L50.9259093,109.82972 L50.9259093,112.308095 Z M8.04714864,111.782679 L7,111.782679 L7,109.304304 L8.05208799,109.304304 L8.04714864,111.782679 Z M50.9259093,108.065117 L49.8738215,108.065117 L49.8738215,105.586742 L50.9259093,105.586742 L50.9259093,108.065117 Z M8.04714864,107.539701 L7,107.539701 L7,105.061326 L8.05208799,105.061326 L8.04714864,107.539701 Z M50.9259093,103.822139 L49.8738215,103.822139 L49.8738215,101.343764 L50.9259093,101.343764 L50.9259093,103.822139 Z M8.04714864,103.296724 L7,103.296724 L7,100.818349 L8.05208799,100.818349 L8.04714864,103.296724 Z M50.9259093,99.5791613 L49.8738215,99.5791613 L49.8738215,97.1007863 L50.9259093,97.1007863 L50.9259093,99.5791613 Z M8.04714864,99.0537457 L7,99.0537457 L7,96.5753711 L8.05208799,96.5753711 L8.04714864,99.0537457 Z M50.9259093,95.3361834 L49.8738215,95.3361834 L49.8738215,92.8578088 L50.9259093,92.8578088 L50.9259093,95.3361834 Z M8.04714864,94.8107682 L7,94.8107682 L7,92.3323932 L8.05208799,92.3323932 L8.04714864,94.8107682 Z M50.9259093,91.0932059 L49.8738215,91.0932059 L49.8738215,88.6148309 L50.9259093,88.6148309 L50.9259093,91.0932059 Z M8.04714864,90.5479634 L7,90.5479634 L7,88.0695884 L8.05208799,88.0695884 L8.04714864,90.5479634 Z M50.9259093,86.8304011 L49.8738215,86.8304011 L49.8738215,84.3520265 L50.9259093,84.3520265 L50.9259093,86.8304011 Z M8.04714864,86.3049855 L7,86.3049855 L7,83.8266109 L8.05208799,83.8266109 L8.04714864,86.3049855 Z M49.9577908,82.6964718 L49.8392458,82.2007969 C49.7592701,81.8594845 49.5593503,81.5585498 49.2761563,81.3531925 L48.8513698,81.0458741 L49.4687921,80.1933132 L49.893579,80.500632 C50.3873837,80.8507863 50.7382715,81.3684053 50.881455,81.957916 L51,82.453591 L49.9577908,82.6964718 Z M7.97305794,82.2900185 L7.0493938,81.7943436 L7.30130219,81.3333655 C7.58757174,80.8072541 8.05181057,80.4011546 8.61023801,80.1883565 L9.10417603,80 L9.47462956,80.9913498 L8.98069154,81.1797063 C8.65541389,81.3040659 8.38547001,81.5415372 8.22002693,81.8488679 L7.97305794,82.2900185 Z M47.3695555,81.0607445 L44.8998656,81.0607445 L44.8998656,80.0049566 L47.3695555,80.0049566 L47.3695555,81.0607445 Z M43.141446,81.0607445 L40.6717559,81.0607445 L40.6717559,80.0049566 L43.141446,80.0049566 L43.141446,81.0607445 Z M38.9133365,81.0607445 L36.4436463,81.0607445 L36.4436463,80.0049566 L38.9133365,80.0049566 L38.9133365,81.0607445 Z M34.6852269,81.0607445 L32.2155367,81.0607445 L32.2155367,80.0049566 L34.6852269,80.0049566 L34.6852269,81.0607445 Z M30.4571173,81.0607445 L27.9874271,81.0607445 L27.9874271,80.0049566 L30.4571173,80.0049566 L30.4571173,81.0607445 Z M26.2290077,81.0607445 L23.7593176,81.0607445 L23.7593176,80.0049566 L26.2290077,80.0049566 L26.2290077,81.0607445 Z M22.0008981,81.0607445 L19.5312079,81.0607445 L19.5312079,80.0049566 L22.0008981,80.0049566 L22.0008981,81.0607445 Z M17.7727885,81.0607445 L15.3030984,81.0607445 L15.3030984,80.0049566 L17.7727885,80.0049566 L17.7727885,81.0607445 Z M13.544679,81.0607445 L11.0799282,81.0607445 L11.0799282,80.0049566 L13.5496183,80.0049566 L13.544679,81.0607445 Z" id="Shape" fill="#0789EE"></path>
                <rect id="Rectangle-path" fill="#DCE7F7" x="16" y="89" width="14" height="10"></rect>
                <rect id="Rectangle-path" fill="#DCE7F7" x="16" y="102" width="14" height="10"></rect>
                <rect id="Rectangle-path" fill="#DCE7F7" x="33" y="89" width="10" height="10"></rect>
                <rect id="Rectangle-path" fill="#D5E1EF" x="158" y="57" width="43" height="42" rx="4.01"></rect>
                <rect id="Rectangle-path" fill="#FFFFFF" x="153" y="52" width="43" height="42" rx="4.01"></rect>
                <path d="M194.486846,94 L192.572298,94 L192.572298,92.9457871 L195.006297,92.9457871 L195.03598,93.9901015 L194.486846,94 Z M190.850688,94 L188.411742,94 L188.411742,92.9457871 L190.850688,92.9457871 L190.850688,94 Z M186.69508,94 L184.256133,94 L184.256133,92.9457871 L186.69508,92.9457871 L186.69508,94 Z M182.539471,94 L180.100525,94 L180.100525,92.9457871 L182.539471,92.9457871 L182.539471,94 Z M178.383862,94 L175.944916,94 L175.944916,92.9457871 L178.383862,92.9457871 L178.383862,94 Z M174.228254,94 L171.789307,94 L171.789307,92.9457871 L174.228254,92.9457871 L174.228254,94 Z M170.072645,94 L167.633698,94 L167.633698,92.9457871 L170.042962,92.9457871 L170.072645,94 Z M165.917036,94 L163.47809,94 L163.47809,92.9457871 L165.917036,92.9457871 L165.917036,94 Z M161.761428,94 L159.322481,94 L159.322481,92.9457871 L161.761428,92.9457871 L161.761428,94 Z M157.605819,94 L155.166872,94 L155.166872,92.9457871 L157.605819,92.9457871 L157.605819,94 Z M153.222641,92.6587246 L153.084121,92.1637891 C153.027683,91.9506276 152.999408,91.7309861 153.000009,91.5104744 L153.000009,90.1197053 L154.053763,90.1197053 L154.053763,91.5104744 C154.053339,91.6391371 154.069975,91.7672882 154.103235,91.8915747 L154.241755,92.3865102 L153.222641,92.6587246 Z M196.881268,92.4162061 L195.842366,92.2479284 L195.926468,91.7529925 C195.932549,91.6755723 195.932549,91.5977935 195.926468,91.5203729 L195.926468,89.9266805 L196.980211,89.9266805 L196.980211,91.5203729 C196.979565,91.6547245 196.967983,91.7888001 196.945581,91.9212706 L196.881268,92.4162061 Z M154.053763,88.3874311 L153.000019,88.3874311 L153.000019,85.9473988 L154.053763,85.9473988 L154.053763,88.3874311 Z M197,88.1845074 L195.946256,88.1845074 L195.946256,85.7444751 L197,85.7444751 L197,88.1845074 Z M154.053763,84.225023 L153.000019,84.225023 L153.000019,81.7849907 L154.053763,81.7849907 L154.053763,84.225023 Z M197,84.0220993 L195.946256,84.0220993 L195.946256,81.5820675 L197,81.5820675 L197,84.0220993 Z M154.053763,80.062615 L153.000019,80.062615 L153.000019,77.6225831 L154.053763,77.6225831 L154.053763,80.062615 Z M197,79.8596917 L195.946256,79.8596917 L195.946256,77.4196594 L197,77.4196594 L197,79.8596917 Z M154.053763,75.9002074 L153.000019,75.9002074 L153.000019,73.4601751 L154.053763,73.4601751 L154.053763,75.9002074 Z M197,75.6972837 L195.946256,75.6972837 L195.946256,73.2572514 L197,73.2572514 L197,75.6972837 Z M154.053763,71.7377994 L153.000019,71.7377994 L153.000019,69.2977671 L154.053763,69.2977671 L154.053763,71.7377994 Z M197,71.5348757 L195.946256,71.5348757 L195.946256,69.1047423 L197,69.1047423 L197,71.5348757 Z M154.053763,67.5753913 L153.000019,67.5753913 L153.000019,65.135359 L154.053763,65.135359 L154.053763,67.5753913 Z M197,67.3724681 L195.946256,67.3724681 L195.946256,64.9472835 L197,64.9472835 L197,67.3724681 Z M154.053763,63.4129833 L153.000019,63.4129833 L153.000019,60.9729514 L154.053763,60.9729514 L154.053763,63.4129833 Z M197,63.21006 L195.946256,63.21006 L195.946256,60.7898251 L197,60.7898251 L197,63.21006 Z M154.053763,59.2505757 L153.000019,59.2505757 L153.000019,56.8105434 L154.053763,56.8105434 L154.053763,59.2505757 Z M197,59.047652 L195.946256,59.047652 L195.946256,56.6076197 L197,56.6076197 L197,59.047652 Z M154.053763,55.0881677 L153.000019,55.0881677 L153.000019,53.5043738 C153.000099,53.3650742 153.011681,53.2260195 153.034649,53.0886283 L153.123698,52.5936924 L154.1626,52.7669202 L154.078498,53.2618557 C154.071636,53.3425493 154.071636,53.4236802 154.078498,53.5043738 L154.053763,55.0881677 Z M197,54.885244 L195.946256,54.885244 L195.946256,53.5093234 C195.947206,53.3773702 195.930569,53.2458789 195.896785,53.1183242 L195.758264,52.6233887 L196.747695,52.3412754 L196.886215,52.8362109 C196.945801,53.0539116 196.975754,53.2786596 196.975264,53.5043738 L197,54.885244 Z M194.823253,52.0542129 L192.384306,52.0542129 L192.384306,51 L194.823253,51 L194.823253,52.0542129 Z M190.667644,52.0542129 L188.228697,52.0542129 L188.228697,51 L190.667644,51 L190.667644,52.0542129 Z M186.512035,52.0542129 L184.073088,52.0542129 L184.073088,51 L186.512035,51 L186.512035,52.0542129 Z M182.356427,52.0542129 L179.91748,52.0542129 L179.91748,51 L182.356427,51 L182.356427,52.0542129 Z M178.200818,52.0542129 L175.761871,52.0542129 L175.761871,51 L178.200818,51 L178.200818,52.0542129 Z M174.045209,52.0542129 L171.606263,52.0542129 L171.606263,51 L174.045209,51 L174.045209,52.0542129 Z M169.8896,52.0542129 L167.450654,52.0542129 L167.450654,51 L169.8896,51 L169.8896,52.0542129 Z M165.733992,52.0542129 L163.295045,52.0542129 L163.295045,51 L165.733992,51 L165.733992,52.0542129 Z M161.578383,52.0542129 L159.139437,52.0542129 L159.139437,51 L161.578383,51 L161.578383,52.0542129 Z M157.422774,52.0542129 L154.998669,52.0542129 L154.998669,51 L155.523068,51 L155.523068,51 L157.432668,51 L157.422774,52.0542129 Z" id="Shape" fill="#0789EE"></path>
                <polygon id="Shape" fill="#39B54A" points="165 73.1698912 171.746109 80 185 66.5810764 184.42607 66 171.609922 76.1737601 165.77821 72.3869152"></polygon>
                <rect id="Rectangle-path" fill="#D5E1EF" x="81" y="49" width="53" height="45" rx="4.01"></rect>
                <rect id="Rectangle-path" fill="#FFFFFF" x="76" y="44" width="53" height="45" rx="4.01"></rect>
                <path d="M127.458009,89 L125.529261,89 L125.529261,87.9446358 L127.95256,87.9446358 L127.982233,88.9900903 L127.458009,89 Z M123.788442,89 L121.345361,89 L121.345361,87.9446358 L123.788442,87.9446358 L123.788442,89 Z M119.614433,89 L117.171353,89 L117.171353,87.9446358 L119.614433,87.9446358 L119.614433,89 Z M115.440425,89 L112.997344,89 L112.997344,87.9446358 L115.440425,87.9446358 L115.440425,89 Z M111.266416,89 L108.823335,89 L108.823335,87.9446358 L111.266416,87.9446358 L111.266416,89 Z M107.092408,89 L104.649327,89 L104.649327,87.9446358 L107.092408,87.9446358 L107.092408,89 Z M102.918399,89 L100.475318,89 L100.475318,87.9446358 L102.918399,87.9446358 L102.918399,89 Z M98.7443907,89 L96.3013098,89 L96.3013098,87.9446358 L98.7740635,87.9446358 L98.7443907,89 Z M94.5703818,89 L92.147083,89 L92.147083,87.9446358 L94.5901639,87.9446358 L94.5703818,89 Z M90.3963735,89 L87.9532926,89 L87.9532926,87.9446358 L90.3963735,87.9446358 L90.3963735,89 Z M86.2223646,89 L83.7792838,89 L83.7792838,87.9446358 L86.2223646,87.9446358 L86.2223646,89 Z M82.0483563,89 L79.6052754,89 L79.6052754,87.9446358 L82.0483563,87.9446358 L82.0483563,89 Z M77.5528894,88.8464025 L77.1226301,88.544162 C76.6362443,88.2036528 76.2858535,87.7016562 76.1335287,87.1271003 L76,86.6316243 L77.0187747,86.3640672 L77.1523034,86.8595432 C77.2425931,87.1920378 77.4453806,87.4827766 77.7259821,87.6820334 L78.1562414,87.9842738 L77.5528894,88.8464025 Z M129.821961,87.3946573 L128.783405,87.23115 L128.862533,86.7109003 C128.868475,86.6350438 128.868475,86.5588379 128.862533,86.4829814 L128.862533,84.872684 L129.930763,84.872684 L129.930763,86.4829814 C129.930647,86.6123719 129.920728,86.7415667 129.90109,86.8694525 L129.821961,87.3946573 Z M77.1127394,84.7339509 L76.059346,84.7339509 L76.059346,82.286299 L77.1127394,82.286299 L77.1127394,84.7339509 Z M129.930763,83.1434726 L128.87737,83.1434726 L128.87737,80.6958207 L129.930763,80.6958207 L129.930763,83.1434726 Z M77.107794,80.5570876 L76.0544006,80.5570876 L76.0544006,78.1094353 L77.107794,78.1094353 L77.107794,80.5570876 Z M129.930763,78.9616542 L128.87737,78.9616542 L128.87737,76.5140023 L129.930763,76.5140023 L129.930763,78.9616542 Z M77.107794,76.3752692 L76.0544006,76.3752692 L76.0544006,73.9276173 L77.107794,73.9276173 L77.107794,76.3752692 Z M129.930763,74.7847909 L128.87737,74.7847909 L128.87737,72.337139 L129.930763,72.337139 L129.930763,74.7847909 Z M77.107794,72.1984059 L76.0544006,72.1984059 L76.0544006,69.750754 L77.107794,69.750754 L77.107794,72.1984059 Z M129.930763,70.6029729 L128.87737,70.6029729 L128.87737,68.1553211 L129.930763,68.1553211 L129.930763,70.6029729 Z M77.107794,68.0165875 L76.0544006,68.0165875 L76.0544006,65.5689356 L77.107794,65.5689356 L77.107794,68.0165875 Z M129.930763,66.4211545 L128.87737,66.4211545 L128.87737,63.9735027 L129.930763,63.9735027 L129.930763,66.4211545 Z M77.1325214,63.8347695 L76.079128,63.8347695 L76.079128,61.4069367 L77.1325214,61.4069367 L77.1325214,63.8347695 Z M129.930763,62.2393366 L128.87737,62.2393366 L128.87737,59.7916847 L129.930763,59.7916847 L129.930763,62.2393366 Z M77.107794,59.6529511 L76.0544006,59.6529511 L76.0544006,57.2052993 L77.107794,57.2052993 L77.107794,59.6529511 Z M129.930763,58.0575182 L128.87737,58.0575182 L128.87737,55.6098664 L129.930763,55.6098664 L129.930763,58.0575182 Z M77.1325214,55.4612235 L76.079128,55.4612235 L76.079128,53.0135716 L77.1325214,53.0135716 L77.1325214,55.4612235 Z M129.930763,53.8757002 L128.87737,53.8757002 L128.87737,51.4280484 L129.930763,51.4280484 L129.930763,53.8757002 Z M77.107794,51.2893148 L76.0544006,51.2893148 L76.0544006,48.841663 L77.107794,48.841663 L77.107794,51.2893148 Z M129.930763,49.6988365 L128.87737,49.6988365 L128.87737,47.2511847 L129.930763,47.2511847 L129.930763,49.6988365 Z M77.1325214,47.1124515 L76.079128,47.1124515 L76.079128,45.5120639 C76.0797745,45.3775656 76.0913521,45.2433436 76.1137467,45.1107279 L76.1978206,44.6152519 L77.2363768,44.7837138 L77.1523034,45.2791898 C77.1462249,45.356695 77.1462249,45.4345587 77.1523034,45.5120639 L77.1325214,47.1124515 Z M128.986171,45.6260234 L128.852642,45.1305474 C128.76362,44.798788 128.560428,44.5092248 128.278963,44.3130114 L127.848704,44.010771 L128.447111,43.1486428 L128.87737,43.4508833 C129.363419,43.7895437 129.713881,44.2898855 129.866471,44.8629899 L130,45.3584664 L128.986171,45.6260234 Z M126.394725,44.0652734 L123.951644,44.0652734 L123.951644,43 L126.394725,43 L126.394725,44.0652734 Z M122.220716,44.0652734 L119.777635,44.0652734 L119.777635,43 L122.220716,43 L122.220716,44.0652734 Z M118.061544,44.0652734 L115.58879,44.0652734 L115.58879,43 L118.061544,43 L118.061544,44.0652734 Z M113.887536,44.0652734 L111.434564,44.0652734 L111.434564,43 L113.877644,43 L113.887536,44.0652734 Z M109.713527,44.0652734 L107.270446,44.0652734 L107.270446,43 L109.713527,43 L109.713527,44.0652734 Z M105.539518,44.0652734 L103.096438,44.0652734 L103.096438,43 L105.539518,43 L105.539518,44.0652734 Z M101.36551,44.0652734 L98.9224288,44.0652734 L98.9224288,43 L101.36551,43 L101.36551,44.0652734 Z M97.1915012,44.0652734 L94.7484204,44.0652734 L94.7484204,43 L97.1915012,43 L97.1915012,44.0652734 Z M93.0174924,44.0652734 L90.5744116,44.0652734 L90.5744116,43 L93.0174924,43 L93.0174924,44.0652734 Z M88.843484,44.0652734 L86.410294,44.0652734 L86.410294,43 L88.8533748,43 L88.843484,44.0652734 Z M84.6694752,44.0652734 L82.2263944,44.0652734 L82.2263944,43 L84.6694752,43 L84.6694752,44.0652734 Z M80.4756848,44.0652734 L78.0424948,44.0652734 L78.0424948,43.0099095 L80.4756848,43.0099095 L80.4756848,44.0652734 Z" id="Shape" fill="#0789EE"></path>
                <rect id="Rectangle-path" fill="#DCE7F7" x="85" y="52" width="18" height="10"></rect>
                <circle id="Oval" fill="#DCE7F7" cx="112" cy="57" r="5"></circle>
                <circle id="Oval" fill="#DCE7F7" cx="112" cy="70" r="5"></circle>
                <line x1="51" y1="106" x2="74" y2="106" id="Shape" fill="#FFFFFF"></line>
                <path d="M73,107 L70.5789472,107 L70.5789472,106 L73,106 L73,107 Z M68.8842106,107 L66.4631578,107 L66.4631578,106 L68.8842106,106 L68.8842106,107 Z M64.7684211,107 L62.3473683,107 L62.3473683,106 L64.7684211,106 L64.7684211,107 Z M60.6526317,107 L58.2315789,107 L58.2315789,106 L60.6526317,106 L60.6526317,107 Z M56.5368422,107 L54.1157894,107 L54.1157894,106 L56.5368422,106 L56.5368422,107 Z M52.4210524,107 L50,107 L50,106 L52.4210524,106 L52.4210524,107 Z" id="Shape" fill="#0789EE"></path>
                <path d="M68.0793256,113 L67.3297942,112.259521 L68.7539039,110.852609 L69.5034353,111.593089 L68.0793256,113 Z M70.7526548,110.358956 L70.0031229,109.618477 L71.7420361,107.885754 L72.4915675,108.626234 L70.7526548,110.358956 Z M73.7507805,107.397038 L73.0012491,106.656558 L73.5009367,106.162905 L73.0012491,105.669252 L73.7507805,104.928773 L75,106.162905 L73.7507805,107.397038 Z M71.75203,104.43512 L69.9981262,102.702398 L70.7476576,101.961918 L72.5015615,103.694641 L71.75203,104.43512 Z M68.7539039,101.473202 L67,99.7404795 L67.7495319,99 L69.5034353,100.732722 L68.7539039,101.473202 Z" id="Shape" fill="#0789EE"></path>
                <line x1="102" y1="89" x2="102" y2="122" id="Shape" fill="#FFFFFF"></line>
                <path d="M103,120 L102,120 L102,117.51938 L103,117.51938 L103,120 Z M103,115.782946 L102,115.782946 L102,113.302325 L103,113.302325 L103,115.782946 Z M103,111.565892 L102,111.565892 L102,109.085271 L103,109.085271 L103,111.565892 Z M103,107.348837 L102,107.348837 L102,104.868217 L103,104.868217 L103,107.348837 Z M103,103.131783 L102,103.131783 L102,100.651163 L103,100.651163 L103,103.131783 Z M103,98.9147288 L102,98.9147288 L102,96.4341085 L103,96.4341085 L103,98.9147288 Z M103,94.6976746 L102,94.6976746 L102,92.2170542 L103,92.2170542 L103,94.6976746 Z M103,90.4806199 L102,90.4806199 L102,88 L103,88 L103,90.4806199 Z" id="Shape" fill="#0789EE"></path>
                <path d="M168.188282,192.437512 C160.390567,195.48265 151.631018,193.965025 144.976705,188.858486 C143.185494,187.433364 141.137505,186.370782 138.945621,185.72931 C132.826205,184.083155 126.593921,181.280244 121.416708,177.295859 C116.239496,173.311474 113.93306,169.425956 111.837639,166.578554 C109.742218,163.731152 102.023019,156.469289 98.921598,152.351431 C97.9401361,151.491279 96.8948793,148.955311 100.648971,147.645309 C104.403064,146.335306 110.252578,148.396706 114.38944,154.857738 C115.853862,157.006904 117.933719,158.655438 120.351822,159.583635 C120.754222,159.746767 121.215509,158.204424 120.979958,156.582987 C120.744407,154.96155 121.603186,145.910173 117.05411,136.492984 C112.735677,127.945835 106.949958,118.138117 109.79129,108.982929 C111.553015,105.117185 112.843638,105.201223 115.63099,108.127719 C116.85291,109.610742 117.299475,110.945461 118.123903,114.470109 C119.282028,119.413516 125.612459,132.760713 127.001227,134.619433 C128.389996,136.478154 129.322385,137.442118 129.945614,137.407515 C130.568842,137.372911 129.577566,136.290305 128.964152,133.630752 C128.350738,130.971199 128.336016,127.649231 129.454883,126.532021 C130.57375,125.414811 132.580839,123.565977 135.539947,124.747451 C137.01214,125.350546 138.096656,125.523566 138.553036,126.601228 C139.097747,125.246735 139.29404,122.542692 143.013781,123.269372 C144.760783,123.981223 146.969073,124.193789 148.765148,128.440176 C150.463078,127.713495 153.858936,127.308136 156.283148,131.282634 C158.707359,135.257133 162.544876,142.598091 165.008346,153.893774 C166.107583,156.494006 168.477814,164.769268 169.096135,166.217686 C169.28752,166.667536 170.470182,167.819349 172.163204,169.252937 C179.926569,175.837554 178.051976,188.403693 168.634848,192.249663 L168.188282,192.437512 Z" id="Shape" fill="#FDB7A2"></path>
                <path d="M99.0031313,150.284965 C99.0031313,150.284965 98.7736925,151.473776 102.242808,154 C103.238572,153.781741 104.431654,152.681162 103.844291,150.164226 C103.13303,149.45837 99.4252987,147.87948 99.0031313,150.284965 Z" id="Shape" fill="#D88577"></path>
                <path d="M113.243586,107.371979 C113.243586,107.371979 110.083178,109.368619 113.838796,114 C115.224108,114 117.594414,112.770111 118,111.282923 C117.657622,109.867779 115.619159,105.750996 113.243586,107.371979 Z" id="Shape" fill="#D88577"></path>
                <path d="M101.837095,123 L100.598025,121.745784 L101.338505,120.996252 L101.832158,121.49594 L102.325811,120.996252 L103.066291,121.745784 L101.837095,123 Z M104.305359,120.501561 L103.56488,119.75203 L105.297602,117.998126 L106.038082,118.747658 L104.305359,120.501561 Z M99.3688292,120.501561 L97.636107,118.747658 L98.3765869,117.998126 L100.109309,119.75203 L99.3688292,120.501561 Z M107.267278,117.503435 L106.526798,116.753904 L108.259521,115 L109,115.749532 L107.267278,117.503435 Z M96.4069109,117.503435 L95,116.079326 L95.7404795,115.329794 L97.1473904,116.753904 L96.4069109,117.503435 Z" id="Shape" fill="#0789EE"></path>
            </g>
        </g>
    </g>
</svg>