<?xml version="1.0" encoding="UTF-8"?>
<svg width="225px" height="30px" viewBox="0 0 225 30" version="1.1" xmlns="http://www.w3.org/2000/svg" xmlns:xlink="http://www.w3.org/1999/xlink">
    <!-- Generator: Sketch 59.1 (86144) - https://sketch.com -->
    <title>Group 37</title>
    <desc>Created with Sketch.</desc>
    <defs>
        <polygon id="path-1" points="0.30213 0.32436 15.39333 0.32436 15.39333 15.3 0.30213 15.3"></polygon>
        <polygon id="path-3" points="0.37476 0.32427 16.53156 0.32427 16.53156 15.3 0.37476 15.3"></polygon>
        <polygon id="path-5" points="0.1287 0.32427 16.2855 0.32427 16.2855 15.3 0.1287 15.3"></polygon>
        <polygon id="path-7" points="0.33084 0.32427 16.48764 0.32427 16.48764 15.3 0.33084 15.3"></polygon>
        <polygon id="path-9" points="0.86346 0.32427 17.02026 0.32427 17.02026 15.3 0.86346 15.3"></polygon>
        <polygon id="path-11" points="0.61821 0.32427 16.77501 0.32427 16.77501 15.3 0.61821 15.3"></polygon>
    </defs>
    <g id="Symbols" stroke="none" stroke-width="1" fill="none" fill-rule="evenodd">
        <g id="Menu-sidebar" transform="translate(-38.000000, -74.000000)">
            <g id="Group-37" transform="translate(38.000000, 74.000000)">
                <path d="M6.39333,9.8883 L-0.00027,28.8954 L5.87493,28.8954 L6.96663,24.9507 L12.75813,24.9507 L13.82373,28.8954 L19.87173,28.8954 L13.44933,9.8883 L6.39333,9.8883 Z M9.07173,17.3475 L9.84843,14.2668 L9.90693,14.2668 L10.71333,17.3772 L11.73213,21.1491 L8.01873,21.1491 L9.07173,17.3475 Z" id="Fill-1" fill="#FFFFFF"></path>
                <g id="Group-36" transform="translate(19.800000, 0.384120)">
                    <g id="Group-4" transform="translate(0.000000, 13.500000)">
                        <mask id="mask-2" fill="white">
                            <use xlink:href="#path-1"></use>
                        </mask>
                        <g id="Clip-3"></g>
                        <path d="M7.09893,4.67316 C7.42473,4.44276 7.82883,4.32756 8.30853,4.32756 C8.82693,4.32756 9.23463,4.51926 9.53253,4.90356 C9.82953,5.28786 9.98883,5.87286 10.00773,6.66036 L15.39333,5.01876 C15.31683,4.23126 15.00903,3.47796 14.47173,2.75796 C13.93443,2.03796 13.14243,1.45206 12.09573,1.00116 C11.04903,0.55026 9.71973,0.32436 8.10693,0.32436 C6.55173,0.32436 5.18823,0.61686 4.01733,1.20276 C2.84553,1.78866 1.93383,2.63826 1.28133,3.75156 C0.62883,4.86486 0.30213,6.21846 0.30213,7.81236 C0.30213,9.40626 0.62883,10.75986 1.28133,11.87316 C1.93383,12.98646 2.86533,13.83606 4.07493,14.42196 C5.28453,15.00786 6.71463,15.30036 8.36613,15.30036 C9.74853,15.30036 10.94823,15.09876 11.96613,14.69556 C12.98313,14.29236 13.78503,13.75506 14.37093,13.08276 C14.95593,12.41046 15.28803,11.66166 15.36453,10.83636 L10.15173,9.19476 C10.11303,9.63666 10.01673,10.01556 9.86373,10.33236 C9.70983,10.64916 9.51363,10.88946 9.27333,11.05236 C9.03303,11.21616 8.72163,11.29716 8.33733,11.29716 C7.91433,11.29716 7.53543,11.19636 7.19973,10.99476 C6.86313,10.79316 6.60393,10.44306 6.42213,9.94356 C6.23943,9.44406 6.14853,8.75286 6.14853,7.86996 C6.14853,7.00596 6.22503,6.31476 6.37893,5.79636 C6.53193,5.27796 6.77223,4.90356 7.09893,4.67316" id="Fill-2" fill="#FFFFFF" mask="url(#mask-2)"></path>
                    </g>
                    <g id="Group-7" transform="translate(16.200000, 13.500000)">
                        <mask id="mask-4" fill="white">
                            <use xlink:href="#path-3"></use>
                        </mask>
                        <g id="Clip-6"></g>
                        <path d="M8.79786,10.99467 C8.63406,11.27367 8.41896,11.47437 8.14986,11.59947 C7.88076,11.72457 7.59276,11.78667 7.28586,11.78667 C6.86376,11.78667 6.53706,11.69037 6.30666,11.49867 C6.07716,11.30697 5.96196,11.02887 5.96196,10.66347 C5.96196,10.28007 6.07176,9.98217 6.29226,9.77067 C6.51276,9.55917 6.87276,9.39627 7.37226,9.28107 L9.04266,8.91477 L9.04266,9.97227 C9.04266,10.37547 8.96166,10.71657 8.79786,10.99467 M14.83146,10.63467 L14.83146,5.82507 C14.83146,4.09707 14.22666,2.74797 13.01706,1.77867 C11.80836,0.80937 10.06956,0.32427 7.80426,0.32427 C5.59566,0.32427 3.87756,0.75627 2.64906,1.62027 C1.42056,2.48427 0.71046,3.68397 0.51876,5.22027 L5.41386,6.11307 C5.52906,5.40297 5.74956,4.90347 6.07716,4.61547 C6.40296,4.32747 6.84396,4.18347 7.40106,4.18347 C7.91946,4.18347 8.32356,4.34187 8.61066,4.65867 C8.89866,4.97547 9.04266,5.41197 9.04266,5.96907 L9.04266,6.43797 L4.29066,7.40907 C2.98476,7.67817 2.00556,8.15337 1.35396,8.83467 C0.70056,9.51597 0.37476,10.37547 0.37476,11.41227 C0.37476,12.66057 0.79596,13.61997 1.64106,14.29317 C2.48526,14.96457 3.65706,15.30027 5.15466,15.30027 C6.07716,15.30027 6.92136,15.14187 7.68996,14.82507 C8.45676,14.50827 9.07236,14.06187 9.53226,13.48587 C9.64746,13.34187 9.74916,13.19247 9.83466,13.03767 C10.02546,13.59837 10.33596,14.06817 10.80036,14.42187 C11.56716,15.00777 12.60396,15.30027 13.91076,15.30027 C14.83146,15.30027 15.61896,15.13647 16.27236,14.81067 L16.53156,11.70027 C16.37676,11.77677 16.15716,11.81547 15.86826,11.81547 C15.17706,11.81547 14.83146,11.42217 14.83146,10.63467" id="Fill-5" fill="#FFFFFF" mask="url(#mask-4)"></path>
                    </g>
                    <path d="M41.22684,24.88311 C40.74624,24.88311 40.41054,24.74901 40.21884,24.47991 C40.02624,24.21171 39.93084,23.76981 39.93084,23.15511 L39.93084,8.17911 L34.11324,8.17911 L34.11324,23.99031 C34.11324,25.71831 34.47774,26.95221 35.20764,27.69111 C35.93664,28.43091 37.13724,28.79991 38.80764,28.79991 C39.42144,28.79991 40.04064,28.72251 40.66524,28.56951 C41.28804,28.41651 41.77314,28.21491 42.11874,27.96471 L42.43644,24.68151 C42.22404,24.75891 42.02784,24.81111 41.84514,24.83991 C41.66244,24.86871 41.45724,24.88311 41.22684,24.88311" id="Fill-8" fill="#FFFFFF"></path>
                    <g id="Group-12" transform="translate(43.200000, 13.500000)">
                        <mask id="mask-6" fill="white">
                            <use xlink:href="#path-5"></use>
                        </mask>
                        <g id="Clip-11"></g>
                        <path d="M8.5518,10.99467 C8.388,11.27367 8.1729,11.47437 7.9038,11.59947 C7.6347,11.72457 7.3467,11.78667 7.0398,11.78667 C6.6177,11.78667 6.291,11.69037 6.0606,11.49867 C5.8311,11.30697 5.7159,11.02887 5.7159,10.66347 C5.7159,10.28007 5.8257,9.98217 6.0462,9.77067 C6.2667,9.55917 6.6267,9.39627 7.1262,9.28107 L8.7966,8.91477 L8.7966,9.97227 C8.7966,10.37547 8.7156,10.71657 8.5518,10.99467 M14.5854,10.63467 L14.5854,5.82507 C14.5854,4.09707 13.9806,2.74797 12.771,1.77867 C11.5623,0.80937 9.8235,0.32427 7.5582,0.32427 C5.3496,0.32427 3.6315,0.75627 2.403,1.62027 C1.1745,2.48427 0.4644,3.68397 0.2727,5.22027 L5.1678,6.11307 C5.283,5.40297 5.5035,4.90347 5.8311,4.61547 C6.1569,4.32747 6.5979,4.18347 7.155,4.18347 C7.6734,4.18347 8.0775,4.34187 8.3646,4.65867 C8.6526,4.97547 8.7966,5.41197 8.7966,5.96907 L8.7966,6.43797 L4.0446,7.40907 C2.7387,7.67817 1.7595,8.15337 1.1079,8.83467 C0.4545,9.51597 0.1287,10.37547 0.1287,11.41227 C0.1287,12.66057 0.5499,13.61997 1.395,14.29317 C2.2392,14.96457 3.411,15.30027 4.9086,15.30027 C5.8311,15.30027 6.6753,15.14187 7.4439,14.82507 C8.2107,14.50827 8.8263,14.06187 9.2862,13.48587 C9.4014,13.34187 9.5031,13.19247 9.5886,13.03767 C9.7794,13.59837 10.0899,14.06817 10.5543,14.42187 C11.3211,15.00777 12.3579,15.30027 13.6647,15.30027 C14.5854,15.30027 15.3729,15.13647 16.0263,14.81067 L16.2855,11.70027 C16.1307,11.77677 15.9111,11.81547 15.6222,11.81547 C14.931,11.81547 14.5854,11.42217 14.5854,10.63467" id="Fill-10" fill="#FFFFFF" mask="url(#mask-6)"></path>
                    </g>
                    <polygon id="Fill-13" fill="#FFFFFF" points="81.08523 18.51858 80.13393 22.29138 80.07723 22.29138 79.12593 18.51858 76.56363 9.50418 68.26923 9.50418 68.26923 28.51218 73.45323 28.51218 73.45323 20.90898 73.33803 14.77458 73.42353 14.77458 77.54193 28.51218 82.26603 28.51218 86.44113 14.77458 86.49963 14.77458 86.38443 20.90898 86.38443 28.51218 91.56753 28.51218 91.56753 9.50418 83.64843 9.50418"></polygon>
                    <g id="Group-17" transform="translate(93.600000, 13.500000)">
                        <mask id="mask-8" fill="white">
                            <use xlink:href="#path-7"></use>
                        </mask>
                        <g id="Clip-16"></g>
                        <path d="M8.75394,10.99467 C8.59014,11.27367 8.37504,11.47437 8.10594,11.59947 C7.83684,11.72457 7.54884,11.78667 7.24194,11.78667 C6.81984,11.78667 6.49314,11.69037 6.26274,11.49867 C6.03324,11.30697 5.91804,11.02887 5.91804,10.66347 C5.91804,10.28007 6.02784,9.98217 6.24834,9.77067 C6.46884,9.55917 6.82884,9.39627 7.32834,9.28107 L8.99874,8.91477 L8.99874,9.97227 C8.99874,10.37547 8.91774,10.71657 8.75394,10.99467 M14.78754,10.63467 L14.78754,5.82507 C14.78754,4.09707 14.18274,2.74797 12.97314,1.77867 C11.76444,0.80937 10.02564,0.32427 7.76034,0.32427 C5.55174,0.32427 3.83364,0.75627 2.60514,1.62027 C1.37664,2.48427 0.66654,3.68397 0.47484,5.22027 L5.36994,6.11307 C5.48514,5.40297 5.70564,4.90347 6.03324,4.61547 C6.35904,4.32747 6.80004,4.18347 7.35714,4.18347 C7.87554,4.18347 8.27964,4.34187 8.56674,4.65867 C8.85474,4.97547 8.99874,5.41197 8.99874,5.96907 L8.99874,6.43797 L4.24674,7.40907 C2.94084,7.67817 1.96164,8.15337 1.31004,8.83467 C0.65664,9.51597 0.33084,10.37547 0.33084,11.41227 C0.33084,12.66057 0.75204,13.61997 1.59714,14.29317 C2.44134,14.96457 3.61314,15.30027 5.11074,15.30027 C6.03324,15.30027 6.87744,15.14187 7.64604,14.82507 C8.41284,14.50827 9.02844,14.06187 9.48834,13.48587 C9.60354,13.34187 9.70524,13.19247 9.79074,13.03767 C9.98154,13.59837 10.29204,14.06817 10.75644,14.42187 C11.52324,15.00777 12.56004,15.30027 13.86684,15.30027 C14.78754,15.30027 15.57504,15.13647 16.22844,14.81067 L16.48764,11.70027 C16.33284,11.77677 16.11324,11.81547 15.82434,11.81547 C15.13314,11.81547 14.78754,11.42217 14.78754,10.63467" id="Fill-15" fill="#FFFFFF" mask="url(#mask-8)"></path>
                    </g>
                    <path d="M124.35732,14.38596 C123.65622,14.01156 122.81562,13.82436 121.83642,13.82436 C120.83832,13.82436 119.95992,14.02596 119.20122,14.42916 C118.44342,14.83236 117.82332,15.42276 117.34452,16.20036 C117.16452,16.49106 117.01512,16.81416 116.88012,17.15346 L116.73882,14.11236 L111.49812,14.11236 L111.49812,28.51146 L117.31572,28.51146 L117.31572,20.90916 C117.31572,20.25666 117.39672,19.72836 117.55962,19.32516 C117.72342,18.92196 117.95382,18.62946 118.25172,18.44676 C118.54872,18.26406 118.87992,18.17316 119.24442,18.17316 C119.72502,18.17316 120.09492,18.32256 120.35412,18.61956 C120.61332,18.91746 120.74202,19.46916 120.74202,20.27556 L120.74202,28.51146 L126.55962,28.51146 L126.55962,18.77796 C126.55962,17.70246 126.36792,16.79526 125.98452,16.05636 C125.60022,15.31746 125.05752,14.76036 124.35732,14.38596" id="Fill-18" fill="#FFFFFF"></path>
                    <path d="M138.5262,23.1552 C138.3624,23.6547 138.1374,24.0291 137.8494,24.2784 C137.5623,24.5286 137.2059,24.6528 136.7838,24.6528 C136.1313,24.6528 135.6219,24.4035 135.2574,23.904 C134.8929,23.4054 134.7102,22.5414 134.7102,21.312 C134.7102,20.0835 134.8974,19.224 135.2718,18.7344 C135.6462,18.2448 136.1502,18 136.7838,18 C137.2257,18 137.5947,18.1251 137.8926,18.3744 C138.1905,18.6246 138.411,18.9936 138.555,19.4832 C138.699,19.9728 138.771,20.5731 138.771,21.2832 C138.771,22.032 138.69,22.6566 138.5262,23.1552 L138.5262,23.1552 Z M138.771,16.5843 C138.5253,16.0317 138.2085,15.5385 137.8206,15.1056 C137.052,14.2515 135.9873,13.824 134.6238,13.824 C133.452,13.824 132.4305,14.1219 131.5566,14.7168 C130.6827,15.3126 130.0158,16.1712 129.555,17.2944 C129.0951,18.4176 128.8647,19.7766 128.8647,21.3696 C128.8647,22.9248 129.0897,24.2595 129.5415,25.3728 C129.9924,26.487 130.6449,27.3357 131.499,27.9216 C132.354,28.5084 133.3665,28.8 134.5374,28.8 C135.4977,28.8 136.3374,28.5894 137.0574,28.1673 C137.7774,27.7443 138.3624,27.1548 138.8142,26.3952 C138.9483,26.1711 139.0626,25.9335 139.1661,25.6905 L139.347,28.512 L144.5886,28.512 L144.5886,8.1792 L138.771,8.1792 L138.771,16.5843 Z" id="Fill-20" fill="#FFFFFF"></path>
                    <g id="Group-24" transform="translate(145.800000, 13.500000)">
                        <mask id="mask-10" fill="white">
                            <use xlink:href="#path-9"></use>
                        </mask>
                        <g id="Clip-23"></g>
                        <path d="M9.28656,10.99467 C9.12276,11.27367 8.90766,11.47437 8.63856,11.59947 C8.36946,11.72457 8.08146,11.78667 7.77456,11.78667 C7.35246,11.78667 7.02576,11.69037 6.79536,11.49867 C6.56586,11.30697 6.45066,11.02887 6.45066,10.66347 C6.45066,10.28007 6.56046,9.98217 6.78096,9.77067 C7.00146,9.55917 7.36146,9.39627 7.86096,9.28107 L9.53136,8.91477 L9.53136,9.97227 C9.53136,10.37547 9.45036,10.71657 9.28656,10.99467 M15.32016,10.63467 L15.32016,5.82507 C15.32016,4.09707 14.71536,2.74797 13.50576,1.77867 C12.29706,0.80937 10.55826,0.32427 8.29296,0.32427 C6.08436,0.32427 4.36626,0.75627 3.13776,1.62027 C1.90926,2.48427 1.19916,3.68397 1.00746,5.22027 L5.90256,6.11307 C6.01776,5.40297 6.23826,4.90347 6.56586,4.61547 C6.89166,4.32747 7.33266,4.18347 7.88976,4.18347 C8.40816,4.18347 8.81226,4.34187 9.09936,4.65867 C9.38736,4.97547 9.53136,5.41197 9.53136,5.96907 L9.53136,6.43797 L4.77936,7.40907 C3.47346,7.67817 2.49426,8.15337 1.84266,8.83467 C1.18926,9.51597 0.86346,10.37547 0.86346,11.41227 C0.86346,12.66057 1.28466,13.61997 2.12976,14.29317 C2.97396,14.96457 4.14576,15.30027 5.64336,15.30027 C6.56586,15.30027 7.41006,15.14187 8.17866,14.82507 C8.94546,14.50827 9.56106,14.06187 10.02096,13.48587 C10.13616,13.34187 10.23786,13.19247 10.32336,13.03767 C10.51416,13.59837 10.82466,14.06817 11.28906,14.42187 C12.05586,15.00777 13.09266,15.30027 14.39946,15.30027 C15.32016,15.30027 16.10766,15.13647 16.76106,14.81067 L17.02026,11.70027 C16.86546,11.77677 16.64586,11.81547 16.35696,11.81547 C15.66576,11.81547 15.32016,11.42217 15.32016,10.63467" id="Fill-22" fill="#FFFFFF" mask="url(#mask-10)"></path>
                    </g>
                    <path d="M171.31554,24.88311 C170.83494,24.88311 170.49924,24.74901 170.30754,24.47991 C170.11494,24.21171 170.01954,23.76981 170.01954,23.15511 L170.01954,8.17911 L164.20194,8.17911 L164.20194,23.99031 C164.20194,25.71831 164.56644,26.95221 165.29634,27.69111 C166.02534,28.43091 167.22594,28.79991 168.89634,28.79991 C169.51014,28.79991 170.12934,28.72251 170.75394,28.56951 C171.37674,28.41651 171.86184,28.21491 172.20744,27.96471 L172.52514,24.68151 C172.31274,24.75891 172.11654,24.81111 171.93384,24.83991 C171.75114,24.86871 171.54594,24.88311 171.31554,24.88311" id="Fill-25" fill="#FFFFFF"></path>
                    <g id="Group-29" transform="translate(172.800000, 13.500000)">
                        <mask id="mask-12" fill="white">
                            <use xlink:href="#path-11"></use>
                        </mask>
                        <g id="Clip-28"></g>
                        <path d="M9.04131,10.99467 C8.87751,11.27367 8.66241,11.47437 8.39331,11.59947 C8.12421,11.72457 7.83621,11.78667 7.52931,11.78667 C7.10721,11.78667 6.78051,11.69037 6.55011,11.49867 C6.32061,11.30697 6.20541,11.02887 6.20541,10.66347 C6.20541,10.28007 6.31521,9.98217 6.53571,9.77067 C6.75621,9.55917 7.11621,9.39627 7.61571,9.28107 L9.28611,8.91477 L9.28611,9.97227 C9.28611,10.37547 9.20511,10.71657 9.04131,10.99467 M16.11171,11.81547 C15.42051,11.81547 15.07491,11.42217 15.07491,10.63467 L15.07491,5.82507 C15.07491,4.09707 14.47011,2.74797 13.26051,1.77867 C12.05181,0.80937 10.31301,0.32427 8.04771,0.32427 C5.83911,0.32427 4.12101,0.75627 2.89251,1.62027 C1.66401,2.48427 0.95391,3.68397 0.76221,5.22027 L5.65731,6.11307 C5.77251,5.40297 5.99301,4.90347 6.32061,4.61547 C6.64641,4.32747 7.08741,4.18347 7.64451,4.18347 C8.16291,4.18347 8.56701,4.34187 8.85411,4.65867 C9.14211,4.97547 9.28611,5.41197 9.28611,5.96907 L9.28611,6.43797 L4.53411,7.40907 C3.22821,7.67817 2.24901,8.15337 1.59741,8.83467 C0.94401,9.51597 0.61821,10.37547 0.61821,11.41227 C0.61821,12.66057 1.03941,13.61997 1.88451,14.29317 C2.72871,14.96457 3.90051,15.30027 5.39811,15.30027 C6.32061,15.30027 7.16481,15.14187 7.93341,14.82507 C8.70021,14.50827 9.31581,14.06187 9.77571,13.48587 C9.89091,13.34187 9.99171,13.19247 10.07811,13.03767 C10.26891,13.59837 10.57941,14.06817 11.04381,14.42187 C11.81061,15.00777 12.84741,15.30027 14.15421,15.30027 C15.07491,15.30027 15.86241,15.13647 16.51581,14.81067 L16.77501,11.70027 C16.62021,11.77677 16.40061,11.81547 16.11171,11.81547" id="Fill-27" fill="#FFFFFF" mask="url(#mask-12)"></path>
                    </g>
                    <path d="M190.02654,7.71588 C190.06344,8.68518 190.12914,9.65268 190.22364,10.61658 C190.83834,11.36538 191.47644,12.09528 192.13614,12.80718 C192.84804,13.46688 193.57704,14.10408 194.32584,14.71878 C195.29064,14.81328 196.25724,14.87898 197.22654,14.91588 C198.19584,14.87898 199.16334,14.81328 200.12814,14.71878 C200.87604,14.10408 201.60594,13.46688 202.31784,12.80718 C202.97754,12.09528 203.61564,11.36538 204.22944,10.61658 C204.32484,9.65268 204.38964,8.68518 204.42654,7.71588 C204.38964,6.74658 204.32484,5.77908 204.22944,4.81518 C203.61564,4.06638 202.97754,3.33648 202.31784,2.62458 C201.60594,1.96488 200.87604,1.32678 200.12814,0.71298 C199.16334,0.61758 198.19584,0.55278 197.22654,0.51588 C196.25724,0.55278 195.29064,0.61758 194.32584,0.71298 C193.57704,1.32678 192.84804,1.96488 192.13614,2.62458 C191.47644,3.33648 190.83834,4.06638 190.22364,4.81518 C190.12914,5.77908 190.06344,6.74658 190.02654,7.71588 M192.92904,9.49608 C192.40254,8.87688 191.85534,8.27658 191.26944,7.71588 C191.85534,7.15518 192.40254,6.55488 192.92904,5.93568 C192.99474,5.12568 193.03254,4.31388 193.01364,3.50298 C193.82544,3.52098 194.63634,3.48318 195.44634,3.41748 C196.06644,2.89188 196.66584,2.34468 197.22654,1.75788 C197.78724,2.34468 198.38754,2.89188 199.00764,3.41748 C199.81764,3.48318 200.62854,3.52098 201.44034,3.50298 C201.42144,4.31388 201.45924,5.12568 201.52494,5.93568 C202.05054,6.55488 202.59864,7.15518 203.18454,7.71588 C202.59864,8.27658 202.05054,8.87688 201.52494,9.49608 C201.45924,10.30608 201.42144,11.11698 201.44034,11.92878 C200.62854,11.90988 199.81764,11.94768 199.00764,12.01338 C198.38754,12.53988 197.78724,13.08708 197.22654,13.67388 C196.66584,13.08708 196.06644,12.53988 195.44634,12.01338 C194.63634,11.94768 193.82544,11.90988 193.01364,11.92878 C193.03254,11.11698 192.99474,10.30608 192.92904,9.49608 M194.56164,14.14908 C193.90194,13.60638 193.25484,13.04658 192.62214,12.47058 C193.49694,12.42018 194.37174,12.44088 195.24474,12.50118 C195.90444,13.07628 196.53804,13.67928 197.12124,14.33358 C196.26624,14.29398 195.41304,14.23278 194.56164,14.14908 M199.89144,14.14908 C199.04094,14.23278 198.18684,14.29398 197.33274,14.33358 C197.91594,13.67928 198.54864,13.07628 199.20924,12.50118 C200.08224,12.44088 200.95704,12.42018 201.83094,12.47058 C201.19914,13.04658 200.55204,13.60638 199.89144,14.14908 M203.65974,10.38078 C203.11794,11.04138 202.55814,11.68848 201.98124,12.32028 C201.93084,11.44548 201.95154,10.57158 202.01184,9.69768 C202.58694,9.03798 203.19084,8.40438 203.84514,7.82208 C203.80554,8.67618 203.74344,9.52938 203.65974,10.38078 M203.65974,5.05098 C203.74344,5.90148 203.80554,6.75558 203.84514,7.60968 C203.19084,7.02648 202.58694,6.39378 202.01184,5.73318 C201.95154,4.86018 201.93084,3.98538 201.98124,3.11148 C202.55814,3.74328 203.11794,4.39038 203.65974,5.05098 M199.89144,1.28268 C200.55204,1.82538 201.19914,2.38518 201.83094,2.96118 C200.95704,3.01158 200.08224,2.99088 199.20924,2.93058 C198.54864,2.35548 197.91594,1.75248 197.33274,1.09728 C198.18684,1.13778 199.04094,1.19898 199.89144,1.28268 M194.56164,1.28268 C195.41304,1.19898 196.26624,1.13778 197.12124,1.09728 C196.53804,1.75248 195.90444,2.35548 195.24474,2.93058 C194.37174,2.99088 193.49694,3.01158 192.62214,2.96118 C193.25484,2.38518 193.90194,1.82538 194.56164,1.28268 M190.79424,5.05098 C191.33604,4.39038 191.89584,3.74328 192.47274,3.11148 C192.52224,3.98538 192.50244,4.86018 192.44214,5.73318 C191.86704,6.39378 191.26314,7.02648 190.60884,7.60968 C190.64844,6.75558 190.71054,5.90148 190.79424,5.05098 M190.79424,10.38078 C190.71054,9.52938 190.64844,8.67618 190.60884,7.82208 C191.26314,8.40438 191.86704,9.03798 192.44214,9.69768 C192.50244,10.57158 192.52224,11.44548 192.47274,12.32028 C191.89584,11.68848 191.33604,11.04138 190.79424,10.38078" id="Fill-30" fill="#FFFFFF"></path>
                    <path d="M194.86584,13.41522 C194.85234,13.40712 194.83884,13.39632 194.82534,13.38462 C194.67144,13.21902 194.85504,12.98232 195.03234,13.01472 C195.17994,13.11642 195.14304,13.41432 194.91714,13.42242 C194.89824,13.42152 194.88204,13.41882 194.86584,13.41522 M199.58724,13.41522 C199.57194,13.41882 199.55574,13.42152 199.53684,13.42242 C199.31004,13.41432 199.27404,13.11642 199.42164,13.01472 C199.59804,12.98232 199.78254,13.21902 199.62774,13.38462 C199.61514,13.39632 199.60164,13.40712 199.58724,13.41522 M202.92624,10.07712 C202.91814,10.09062 202.90824,10.10412 202.89564,10.11672 C202.72914,10.27152 202.49424,10.08702 202.52664,9.91062 C202.62744,9.76302 202.92534,9.79992 202.93344,10.02582 C202.93254,10.04382 202.92984,10.06092 202.92624,10.07712 M202.92624,5.35482 C202.92984,5.37102 202.93254,5.38722 202.93344,5.40522 C202.92534,5.63202 202.62744,5.66892 202.52664,5.52132 C202.49424,5.34492 202.72914,5.16042 202.89564,5.31522 C202.90824,5.32782 202.91814,5.34132 202.92624,5.35482 M199.58724,2.01672 C199.60164,2.02482 199.61514,2.03472 199.62774,2.04732 C199.78254,2.21292 199.59804,2.44872 199.42164,2.41722 C199.27404,2.31552 199.31004,2.01762 199.53684,2.00952 C199.55574,2.01042 199.57194,2.01312 199.58724,2.01672 M194.86584,2.01672 C194.88204,2.01312 194.89824,2.01042 194.91714,2.00952 C195.14304,2.01762 195.17994,2.31552 195.03234,2.41722 C194.85504,2.44872 194.67144,2.21292 194.82534,2.04732 C194.83884,2.03472 194.85234,2.02482 194.86584,2.01672 M191.52774,5.35482 C191.53584,5.34132 191.54664,5.32782 191.55834,5.31522 C191.72394,5.16042 191.95974,5.34492 191.92734,5.52132 C191.82564,5.66892 191.52864,5.63202 191.52054,5.40522 C191.52144,5.38722 191.52324,5.37102 191.52774,5.35482 M191.52774,10.07712 C191.52324,10.06092 191.52144,10.04382 191.52054,10.02582 C191.52864,9.79992 191.82564,9.76302 191.92734,9.91062 C191.95974,10.08702 191.72394,10.27152 191.55834,10.11672 C191.54664,10.10412 191.53584,10.09062 191.52774,10.07712 M195.15474,12.71952 C194.96304,12.66462 194.73984,12.71592 194.59854,12.85452 C194.39694,13.05342 194.39964,13.37022 194.57064,13.58262 C194.57784,13.59342 194.58594,13.60332 194.59674,13.61322 C194.60664,13.62402 194.61744,13.63212 194.62734,13.63932 C194.66334,13.66812 194.70204,13.69242 194.74344,13.71132 C194.78574,13.72662 194.83074,13.73742 194.87664,13.74282 C194.88834,13.74462 194.90184,13.74642 194.91714,13.74552 C194.93064,13.74642 194.94414,13.74462 194.95764,13.74192 C195.22674,13.71312 195.45354,13.49082 195.45174,13.20822 C195.44994,13.01022 195.32844,12.81582 195.15474,12.71952 M199.29924,12.71952 C199.12554,12.81582 199.00404,13.01022 199.00224,13.20822 C199.00044,13.49082 199.22634,13.71312 199.49724,13.74192 C199.50894,13.74462 199.52334,13.74642 199.53684,13.74552 C199.55214,13.74642 199.56564,13.74462 199.57734,13.74282 C199.62324,13.73742 199.66824,13.72662 199.71054,13.71132 C199.75194,13.69242 199.79064,13.66812 199.82664,13.63932 C199.83654,13.63212 199.84734,13.62402 199.85724,13.61322 C199.86804,13.60332 199.87614,13.59342 199.88334,13.58262 C200.05434,13.37022 200.05704,13.05342 199.85544,12.85452 C199.71414,12.71592 199.49094,12.66462 199.29924,12.71952 M202.23054,9.78822 C202.17564,9.97992 202.22694,10.20312 202.36554,10.34352 C202.56444,10.54602 202.88124,10.54242 203.09364,10.37232 C203.10354,10.36512 203.11434,10.35702 203.12424,10.34622 C203.13504,10.33632 203.14314,10.32552 203.15034,10.31562 C203.17914,10.27962 203.20344,10.24002 203.22234,10.19952 C203.23854,10.15632 203.24844,10.11222 203.25294,10.06632 C203.25564,10.05372 203.25744,10.04022 203.25654,10.02582 C203.25744,10.01142 203.25564,9.99882 203.25294,9.98532 C203.22414,9.71532 203.00184,9.48852 202.71924,9.49122 C202.52124,9.49212 202.32684,9.61452 202.23054,9.78822 M202.23054,5.64372 C202.32684,5.81742 202.52124,5.93892 202.71924,5.94072 C203.00184,5.94252 203.22414,5.71662 203.25294,5.44572 C203.25564,5.43312 203.25744,5.41962 203.25654,5.40522 C203.25744,5.39082 203.25564,5.37732 203.25294,5.36562 C203.24844,5.31972 203.23854,5.27472 203.22234,5.23242 C203.20344,5.19102 203.17914,5.15232 203.15034,5.11632 C203.14314,5.10642 203.13504,5.09562 203.12424,5.08572 C203.11434,5.07492 203.10354,5.06682 203.09364,5.05962 C202.88124,4.88862 202.56444,4.88592 202.36554,5.08752 C202.22694,5.22882 202.17564,5.45202 202.23054,5.64372 M199.29924,2.71242 C199.49094,2.76642 199.71414,2.71602 199.85544,2.57742 C200.05704,2.37852 200.05434,2.06172 199.88334,1.84932 C199.87614,1.83852 199.86804,1.82772 199.85724,1.81872 C199.84734,1.80792 199.83654,1.79982 199.82664,1.79262 C199.79064,1.76382 199.75194,1.73952 199.71054,1.71972 C199.66824,1.70442 199.62324,1.69452 199.57734,1.68912 C199.56564,1.68642 199.55214,1.68552 199.53684,1.68552 C199.52334,1.68552 199.50894,1.68642 199.49724,1.68912 C199.22634,1.71882 199.00044,1.94022 199.00224,2.22372 C199.00404,2.42172 199.12554,2.61612 199.29924,2.71242 M195.15474,2.71242 C195.32844,2.61612 195.44994,2.42172 195.45174,2.22372 C195.45354,1.94022 195.22674,1.71882 194.95764,1.68912 C194.94414,1.68642 194.93064,1.68552 194.91714,1.68552 C194.90184,1.68552 194.88834,1.68642 194.87664,1.68912 C194.83074,1.69452 194.78574,1.70442 194.74344,1.71972 C194.70204,1.73952 194.66334,1.76382 194.62734,1.79262 C194.61744,1.79982 194.60664,1.80792 194.59674,1.81872 C194.58594,1.82772 194.57784,1.83852 194.57064,1.84932 C194.39964,2.06172 194.39694,2.37852 194.59854,2.57742 C194.73984,2.71602 194.96304,2.76642 195.15474,2.71242 M192.22344,5.64372 C192.27834,5.45202 192.22704,5.22882 192.08844,5.08752 C191.88954,4.88592 191.57274,4.88862 191.36034,5.05962 C191.34954,5.06682 191.33964,5.07492 191.32884,5.08572 C191.31894,5.09562 191.31084,5.10642 191.30364,5.11632 C191.27484,5.15232 191.24964,5.19102 191.23164,5.23242 C191.21544,5.27472 191.20554,5.31972 191.20014,5.36562 C191.19834,5.37732 191.19654,5.39082 191.19744,5.40522 C191.19654,5.41962 191.19834,5.43312 191.20104,5.44572 C191.22984,5.71662 191.45214,5.94252 191.73474,5.94072 C191.93274,5.93892 192.12714,5.81742 192.22344,5.64372 M192.22344,9.78822 C192.12714,9.61452 191.93274,9.49212 191.73474,9.49122 C191.45214,9.48852 191.22984,9.71532 191.20104,9.98532 C191.19834,9.99882 191.19654,10.01142 191.19744,10.02582 C191.19654,10.04022 191.19834,10.05372 191.20014,10.06632 C191.20554,10.11222 191.21544,10.15632 191.23164,10.19952 C191.24964,10.24002 191.27484,10.27962 191.30364,10.31562 C191.31084,10.32552 191.31894,10.33632 191.32884,10.34622 C191.33964,10.35702 191.34954,10.36512 191.36034,10.37232 C191.57274,10.54242 191.88954,10.54602 192.08844,10.34352 C192.22704,10.20312 192.27834,9.97992 192.22344,9.78822" id="Fill-32" fill="#FFFFFF"></path>
                    <path d="M194.28309,8.93493 C194.10399,8.72523 193.92129,8.51733 193.73589,8.31393 C194.01039,8.38683 194.31189,8.37693 194.65299,8.23653 C194.94819,8.11503 195.17769,7.93503 195.35409,7.71633 C195.17769,7.49673 194.94819,7.31673 194.65299,7.19433 C194.31189,7.05483 194.01039,7.04493 193.73589,7.11783 C193.92129,6.91443 194.10399,6.70653 194.28309,6.49683 C194.30469,6.22053 194.32269,5.94513 194.33529,5.66973 C194.47929,5.91633 194.69799,6.12243 195.03909,6.26463 C195.33339,6.38703 195.62319,6.42213 195.90309,6.39153 C195.93279,6.11253 195.89769,5.82183 195.77529,5.52753 C195.63309,5.18643 195.42699,4.96773 195.18039,4.82463 C195.45669,4.81113 195.73209,4.79403 196.00749,4.77243 C196.21719,4.59243 196.42509,4.41063 196.62849,4.22433 C196.55559,4.49973 196.56549,4.80123 196.70589,5.14233 C196.82739,5.43663 197.00739,5.66703 197.22699,5.84343 C197.44659,5.66703 197.62659,5.43663 197.74809,5.14233 C197.88849,4.80123 197.89839,4.49973 197.82549,4.22433 C198.02799,4.41063 198.23679,4.59243 198.44649,4.77243 C198.72189,4.79403 198.99729,4.81113 199.27269,4.82463 C199.02699,4.96773 198.81999,5.18643 198.67869,5.52753 C198.55539,5.82183 198.52029,6.11253 198.55089,6.39153 C198.83079,6.42213 199.12059,6.38703 199.41489,6.26463 C199.75599,6.12243 199.97469,5.91633 200.11779,5.66973 C200.13129,5.94513 200.14929,6.22053 200.16999,6.49683 C200.34999,6.70653 200.53179,6.91443 200.71809,7.11783 C200.44269,7.04493 200.14209,7.05483 199.80099,7.19433 C199.50579,7.31673 199.27539,7.49673 199.09899,7.71633 C199.27539,7.93503 199.50579,8.11503 199.80099,8.23653 C200.14209,8.37693 200.44269,8.38683 200.71809,8.31393 C200.53179,8.51733 200.34999,8.72523 200.16999,8.93493 C200.14929,9.21033 200.13129,9.48663 200.11779,9.76203 C199.97469,9.51543 199.75599,9.30933 199.41489,9.16713 C199.12059,9.04473 198.83079,9.00963 198.55089,9.03933 C198.52029,9.31923 198.55539,9.60993 198.67869,9.90423 C198.81999,10.24443 199.02699,10.46403 199.27269,10.60713 C198.99729,10.62063 198.72189,10.63773 198.44649,10.65933 C198.23679,10.83933 198.02799,11.02113 197.82549,11.20743 C197.89839,10.93203 197.88849,10.63053 197.74809,10.28943 C197.62659,9.99423 197.44659,9.76473 197.22699,9.58833 C197.00739,9.76473 196.82739,9.99423 196.70589,10.28943 C196.56549,10.63053 196.55559,10.93203 196.62849,11.20743 C196.42509,11.02113 196.21719,10.83933 196.00749,10.65933 C195.73209,10.63773 195.45669,10.62063 195.18039,10.60713 C195.42699,10.46403 195.63309,10.24443 195.77529,9.90423 C195.89769,9.60993 195.93279,9.31923 195.90309,9.03933 C195.62319,9.00963 195.33339,9.04473 195.03909,9.16713 C194.69799,9.30933 194.47929,9.51543 194.33529,9.76203 C194.32269,9.48663 194.30469,9.21033 194.28309,8.93493 M196.87239,7.71633 C196.84719,7.77663 196.81929,7.83693 196.79139,7.89633 C196.85349,7.91793 196.91559,7.94133 196.97589,7.96653 C197.00109,8.02773 197.02449,8.08893 197.04609,8.15103 C197.10639,8.12313 197.16579,8.09613 197.22699,8.07093 C197.28819,8.09613 197.34759,8.12313 197.40699,8.15103 C197.42949,8.08893 197.45199,8.02773 197.47809,7.96653 C197.53839,7.94133 197.60049,7.91793 197.66169,7.89633 C197.63469,7.83693 197.60679,7.77663 197.58159,7.71633 C197.60679,7.65513 197.63469,7.59483 197.66169,7.53543 C197.60049,7.51293 197.53839,7.49043 197.47809,7.46523 C197.45199,7.40403 197.42949,7.34193 197.40699,7.28073 C197.34759,7.30863 197.28819,7.33563 197.22699,7.36083 C197.16579,7.33563 197.10639,7.30863 197.04609,7.28073 C197.02449,7.34193 197.00109,7.40403 196.97589,7.46523 C196.91559,7.49043 196.85349,7.51293 196.79139,7.53543 C196.81929,7.59483 196.84719,7.65513 196.87239,7.71633 M195.58719,9.35523 C195.57639,9.47223 195.54939,9.59103 195.50529,9.71073 C195.30819,10.25793 194.89509,10.44963 194.42079,10.52163 C194.49279,10.04733 194.68449,9.63513 195.23169,9.43713 C195.35229,9.39303 195.47019,9.36693 195.58719,9.35523 M197.22699,10.03473 C197.30169,10.12473 197.36649,10.22733 197.42049,10.34343 C197.66709,10.86993 197.51139,11.29743 197.22699,11.68353 C196.94259,11.29743 196.78599,10.86993 197.03349,10.34343 C197.08749,10.22733 197.15229,10.12473 197.22699,10.03473 M198.86679,9.35523 C198.98289,9.36693 199.10169,9.39303 199.22139,9.43713 C199.76949,9.63513 199.96119,10.04733 200.03319,10.52163 C199.55889,10.44963 199.14579,10.25793 198.94869,9.71073 C198.90459,9.59103 198.87759,9.47223 198.86679,9.35523 M199.54539,7.71633 C199.63539,7.64163 199.73889,7.57683 199.85409,7.52193 C200.38059,7.27533 200.80899,7.43193 201.19509,7.71633 C200.80899,7.99983 200.38059,8.15643 199.85409,7.90983 C199.73889,7.85493 199.63539,7.79013 199.54539,7.71633 M198.86679,6.07653 C198.87759,5.95953 198.90459,5.84073 198.94869,5.72103 C199.14579,5.17383 199.55889,4.98213 200.03319,4.91013 C199.96119,5.38353 199.76949,5.79663 199.22139,5.99463 C199.10169,6.03873 198.98289,6.06483 198.86679,6.07653 M197.22699,5.39703 C197.15229,5.30703 197.08749,5.20353 197.03349,5.08833 C196.78599,4.56183 196.94259,4.13433 197.22699,3.74733 C197.51139,4.13433 197.66709,4.56183 197.42049,5.08833 C197.36649,5.20353 197.30169,5.30703 197.22699,5.39703 M195.58719,6.07653 C195.47019,6.06483 195.35229,6.03873 195.23169,5.99463 C194.68449,5.79663 194.49279,5.38353 194.42079,4.91013 C194.89509,4.98213 195.30819,5.17383 195.50529,5.72103 C195.54939,5.84073 195.57639,5.95953 195.58719,6.07653 M194.90769,7.71633 C194.81769,7.79013 194.71509,7.85493 194.59989,7.90983 C194.07249,8.15643 193.64499,7.99983 193.25889,7.71633 C193.64499,7.43193 194.07249,7.27533 194.59989,7.52193 C194.71509,7.57683 194.81769,7.64163 194.90769,7.71633 M192.27699,7.71633 C192.75399,8.18613 193.20039,8.68833 193.62969,9.20583 C193.69179,9.87543 193.73139,10.54593 193.72779,11.21553 C194.39649,11.21193 195.06699,11.25063 195.73659,11.31273 C196.25409,11.74293 196.75629,12.18933 197.22699,12.66543 C197.69769,12.18933 198.19989,11.74293 198.71649,11.31273 C199.38699,11.25063 200.05659,11.21193 200.72619,11.21553 C200.72259,10.54593 200.76129,9.87543 200.82339,9.20583 C201.25359,8.68833 201.69999,8.18613 202.17609,7.71633 C201.69999,7.24473 201.25359,6.74343 200.82339,6.22593 C200.76129,5.55633 200.72259,4.88583 200.72619,4.21623 C200.05659,4.21983 199.38699,4.18113 198.71649,4.11903 C198.19989,3.68883 197.69769,3.24243 197.22699,2.76633 C196.75629,3.24243 196.25409,3.68883 195.73659,4.11903 C195.06699,4.18113 194.39649,4.21983 193.72779,4.21623 C193.73139,4.88583 193.69179,5.55633 193.62969,6.22593 C193.20039,6.74343 192.75399,7.24473 192.27699,7.71633" id="Fill-34" fill="#FFFFFF"></path>
                </g>
            </g>
        </g>
    </g>
</svg>