<?xml version="1.0" encoding="UTF-8"?>
<svg width="24px" height="24px" viewBox="0 0 24 24" version="1.1" xmlns="http://www.w3.org/2000/svg" xmlns:xlink="http://www.w3.org/1999/xlink">
    <!-- Generator: Sketch 59.1 (86144) - https://sketch.com -->
    <title>Glyphs – 24/Close</title>
    <desc>Created with Sketch.</desc>
    <g id="Glyphs-–-24/Close" stroke="none" stroke-width="1" fill="none" fill-rule="evenodd" fill-opacity="0.7">
        <path d="M6.70710678,5.29289322 L12,10.585 L17.2928932,5.29289322 C17.6834175,4.90236893 18.3165825,4.90236893 18.7071068,5.29289322 C19.0976311,5.68341751 19.0976311,6.31658249 18.7071068,6.70710678 L13.415,12 L18.7071068,17.2928932 C19.0976311,17.6834175 19.0976311,18.3165825 18.7071068,18.7071068 C18.3165825,19.0976311 17.6834175,19.0976311 17.2928932,18.7071068 L12,13.415 L6.70710678,18.7071068 C6.31658249,19.0976311 5.68341751,19.0976311 5.29289322,18.7071068 C4.90236893,18.3165825 4.90236893,17.6834175 5.29289322,17.2928932 L10.585,12 L5.29289322,6.70710678 C4.90236893,6.31658249 4.90236893,5.68341751 5.29289322,5.29289322 C5.68341751,4.90236893 6.31658249,4.90236893 6.70710678,5.29289322 Z" id="Style" fill="#1A1A1A"></path>
    </g>
</svg>