<?xml version="1.0" encoding="UTF-8"?>
<svg width="29px" height="22px" viewBox="0 0 29 22" version="1.1" xmlns="http://www.w3.org/2000/svg" xmlns:xlink="http://www.w3.org/1999/xlink">
    <!-- Generator: Sketch 59.1 (86144) - https://sketch.com -->
    <title>exchange-arrows</title>
    <desc>Created with Sketch.</desc>
    <g id="Web-App" stroke="none" stroke-width="1" fill="none" fill-rule="evenodd">
        <g id="Exchange---0" transform="translate(-743.000000, -306.000000)" fill="#000000" fill-rule="nonzero">
            <g id="Exchange" transform="translate(355.000000, 201.000000)">
                <g id="exchange-arrows" transform="translate(388.000000, 105.000000)">
                    <path d="M0.517794387,7.49992288 L22.7861839,7.49992288 L22.7861839,10.4999577 C22.7861839,10.6354075 22.8371982,10.7524142 22.9396234,10.8515251 C23.0422754,10.9505814 23.1636892,11 23.3039216,11 C23.4550371,11 23.5791717,10.9532083 23.6759287,10.8594059 L28.8547228,5.85942079 C28.9514798,5.76567312 29,5.64582058 29,5.50013682 C29,5.35417942 28.9514798,5.23427215 28.854326,5.14074339 L23.6922533,0.15630084 C23.5626771,0.0519908257 23.433101,0 23.3035249,0 C23.1526361,0 23.0284448,0.0468464703 22.9315178,0.140539411 C22.8345341,0.234396533 22.7860706,0.35403016 22.7860706,0.499932835 L22.7860706,3.49996766 L0.517794387,3.49996766 C0.37756195,3.49996766 0.256204776,3.54938631 0.153722866,3.64838779 C0.0512409552,3.74738926 0,3.86450544 0,3.9999005 L0,6.99993532 C0,7.13533038 0.0511842728,7.25250128 0.153722866,7.35144803 C0.256261459,7.45039478 0.37756195,7.49992288 0.517794387,7.49992288 Z" id="Path"></path>
                    <path d="M28.4822643,14.5002338 L6.21418854,14.5002338 L6.21418854,11.4999552 C6.21418854,11.3645541 6.16289111,11.247378 6.06046628,11.1484268 C5.95792809,11.0494209 5.83651471,11 5.6963395,11 C5.54516794,11 5.42120385,11.0468486 5.32410716,11.1405457 L0.145560021,16.140481 C0.0486900536,16.2345065 0,16.3540361 0,16.5001642 C0,16.6354011 0.0484633246,16.7501692 0.145560021,16.8435927 L5.3080094,21.8439658 C5.43752834,21.9480616 5.5669906,22 5.69650955,22 C5.83668475,22 5.95809813,21.9505791 6.06057964,21.8518469 C6.16300447,21.752622 6.21430191,21.6357195 6.21430191,21.5000995 L6.21430191,18.5000398 L28.4822643,18.5000398 C28.6227229,18.5000398 28.7437395,18.4508379 28.8465611,18.3517225 C28.948986,18.2526071 29,18.1355952 29,17.9999751 L29,14.9999154 C29,14.8644596 28.9488159,14.7474476 28.8465611,14.6485512 C28.7437395,14.5496547 28.6226663,14.5002338 28.4822643,14.5002338 Z" id="Path"></path>
                </g>
            </g>
        </g>
    </g>
</svg>