<?xml version="1.0" encoding="UTF-8"?>
<svg width="64px" height="64px" viewBox="0 0 64 64" version="1.1" xmlns="http://www.w3.org/2000/svg" xmlns:xlink="http://www.w3.org/1999/xlink">
    <!-- Generator: Sketch 59.1 (86144) - https://sketch.com -->
    <title>xxOutlined / Icon</title>
    <desc>Created with Sketch.</desc>
    <g id="Outlined-/-Icon" stroke="none" stroke-width="1" fill="none" fill-rule="evenodd">
        <g id="icon" transform="translate(4.000000, 9.000000)" stroke="#FFFFFF">
            <path d="M55.6364,8.034 C55.6364,12.195 48.1684,15.568 38.9564,15.568 C29.7444,15.568 22.2764,12.195 22.2764,8.034 C22.2764,3.873 29.7444,0.5 38.9564,0.5 C48.1684,0.5 55.6364,3.873 55.6364,8.034 Z" id="Stroke-1" stroke-linecap="round"></path>
            <path d="M54.2717,11.0447 C55.1497,11.9607 55.6367,12.9717 55.6367,14.0337 C55.6367,18.1947 48.1687,21.5677 38.9567,21.5677 C37.1887,21.5677 35.4857,21.4437 33.8877,21.2137" id="Stroke-3" stroke-linecap="round"></path>
            <path d="M54.28,17.053 C55.153,17.967 55.636,18.975 55.636,20.034 C55.636,24.195 48.169,27.568 38.957,27.568 C37.75,27.568 36.574,27.51 35.44,27.4" id="Stroke-5" stroke-linecap="round"></path>
            <path d="M54.2585,23.0305 C55.1445,23.9505 55.6365,24.9665 55.6365,26.0335 C55.6365,30.1945 48.1685,33.5675 38.9565,33.5675 C37.5545,33.5675 36.1945,33.4895 34.8935,33.3425" id="Stroke-7" stroke-linecap="round"></path>
            <path d="M54.2556,29.0276 C55.1436,29.9486 55.6366,30.9646 55.6366,32.0336 C55.6366,36.1946 48.1686,39.5676 38.9566,39.5676 C36.6106,39.5676 34.3776,39.3486 32.3526,38.9536" id="Stroke-9" stroke-linecap="round"></path>
            <path d="M54.2487,35.0203 C55.1417,35.9433 55.6367,36.9623 55.6367,38.0343 C55.6367,42.1943 48.1687,45.5673 38.9567,45.5673 C34.6927,45.5673 30.8027,44.8453 27.8527,43.6563" id="Stroke-11" stroke-linecap="round"></path>
            <g id="Group" transform="translate(0.000000, 12.500000)">
                <path d="M32.912,16.4 C32.912,25.459 25.544,32.802 16.455,32.802 C7.369,32.802 1.77635684e-14,25.459 1.77635684e-14,16.4 C1.77635684e-14,7.341 7.369,-4.97379915e-14 16.455,-4.97379915e-14 C25.544,-4.97379915e-14 32.912,7.341 32.912,16.4 Z" id="Stroke-14" stroke-linecap="square"></path>
                <g id="$" transform="translate(11.000000, 5.000000)" stroke-linecap="round" stroke-linejoin="round">
                    <path d="M9.7328,6.8854775 C9.7328,4.4654775 7.83255,3.2059775 5.41255,3.2059775 C2.99255,3.2059775 1.0318,4.4654775 1.0318,6.8854775 C1.0318,9.3054775 2.4893,9.8087275 5.41255,11.2689775 C8.3303,12.7264775 9.79055,13.2297275 9.79055,15.6497275 C9.79055,18.0669775 7.83255,19.2989775 5.41255,19.2989775 C2.99255,19.2989775 1.0318,18.0669775 1.0318,15.6497275" id="Stroke-1"></path>
                    <line x1="5.412" y1="1.0310025" x2="5.412" y2="2.9477525" id="Stroke-3"></line>
                    <line x1="5.412" y1="19.5585775" x2="5.412" y2="21.4725775" id="Stroke-5"></line>
                </g>
            </g>
        </g>
    </g>
</svg>