<?xml version="1.0" encoding="UTF-8"?>
<svg width="25px" height="26px" viewBox="0 0 25 26" version="1.1" xmlns="http://www.w3.org/2000/svg" xmlns:xlink="http://www.w3.org/1999/xlink">
    <!-- Generator: Sketch 59.1 (86144) - https://sketch.com -->
    <title>Icons / Wallet / Outline</title>
    <desc>Created with Sketch.</desc>
    <defs>
        <path d="M18.4075801,1.42774679e-14 C18.2028738,1.42774679e-14 17.8575415,0.0568526364 17.6530269,0.106282401 L2.63717911,5.96779139 C0.730961948,6.62142442 0,7.44308611 0,9.46366541 C0,10.8107183 0,11.8527135 0,12.5896511 L0,22.8608215 C0,24.552071 1.37767854,26 3.125,26 L21.875,26 C23.6200583,26 25,24.554355 25,22.8608215 L25,8.99808528 C25,7.30568833 23.6213167,6.39541069 21.875,6.39541069 L5.33959394,6.39541069 C13.8026889,3.18641538 18.0979575,1.56450381 18.2253997,1.52967599 C18.4078819,1.52967599 18.5404301,1.59883521 18.631053,1.72366222 C18.7216759,1.84848923 18.75,2.06278342 18.75,2.31454707 L18.75,3.82512898 L20.2348425,3.82512898 L20.2348425,2.2542023 C20.2348425,1.49891135 20.1456734,0.911150221 19.5748963,0.414520438 C19.1468151,0.0420486052 19.021703,-0.000369543823 18.4075801,1.42774679e-14 Z M3.125,7.66404175 L21.875,7.66404175 C22.8578205,7.66404175 23.6154318,8.45268456 23.6154318,9.33685881 L23.6154318,22.7193049 C23.6154318,23.9129362 23.0122504,24.5992692 21.875,24.5992692 L3.125,24.5992692 C1.97776081,24.5992692 1.35304835,23.8325911 1.35304835,22.7193049 L1.35304835,9.46132374 C1.35304835,8.31213751 2.09179801,7.66404175 3.125,7.66404175 Z M19.21875,13.2048986 C18.0969216,13.2048986 17.1875,14.159659 17.1875,15.3374155 C17.1875,16.5151721 18.0969216,17.4699324 19.21875,17.4699324 C20.3405784,17.4699324 21.25,16.5151721 21.25,15.3374155 C21.25,14.159659 20.3405784,13.2048986 19.21875,13.2048986 Z" id="path-1"></path>
    </defs>
    <g id="Symbols" stroke="none" stroke-width="1" fill="none" fill-rule="evenodd">
        <g id="Menu-sidebar" transform="translate(-49.000000, -168.000000)">
            <g id="Group-8" transform="translate(49.000000, 168.000000)">
                <g id="Icons-/-Wallet-/-Outline">
                    <mask id="mask-2" fill="white">
                        <use xlink:href="#path-1"></use>
                    </mask>
                    <use id="Shape" fill="#FFFFFF" fill-rule="evenodd" transform="translate(12.500000, 12.999999) scale(-1, 1) translate(-12.500000, -12.999999) " xlink:href="#path-1"></use>
                </g>
            </g>
        </g>
    </g>
</svg>