<?xml version="1.0" encoding="UTF-8"?>
<svg width="47px" height="47px" viewBox="0 0 47 47" version="1.1" xmlns="http://www.w3.org/2000/svg" xmlns:xlink="http://www.w3.org/1999/xlink">
    <!-- Generator: Sketch 59.1 (86144) - https://sketch.com -->
    <title>Icons / Crypto / Ethereum_O</title>
    <desc>Created with Sketch.</desc>
    <g id="Web-App" stroke="none" stroke-width="1" fill="none" fill-rule="evenodd">
        <g id="Group-4" transform="translate(-35.000000, -256.000000)">
            <g id="Group-2-Copy-2" transform="translate(35.000000, 252.000000)">
                <g id="BTC" transform="translate(0.000000, 4.000000)">
                    <g>
                        <path d="M46.8003786,23.6160736 C46.8003786,36.5303174 36.3315378,46.9991582 23.417294,46.9991582 C10.5030502,46.9991582 0.0342094527,36.5303174 0.0342094527,23.6160736 C0.0342094527,10.7018299 10.5030502,0.232989055 23.417294,0.232989055 C36.3315378,0.232989055 46.8003786,10.7018299 46.8003786,23.6160736" id="Fill-504" fill="#FFC246"></path>
                        <path d="M33.8840515,20.4228832 C34.3674933,17.1386528 31.8916849,15.3633931 28.4929418,14.1798867 L29.5916734,9.74173749 L26.8521693,9.04642745 L25.7680875,13.3958137 L23.6292234,12.8780296 L24.6986555,8.51384954 L22.0177504,7.83333333 L20.9190188,12.2714825 L15.4986097,10.9400378 L14.8393708,13.8396286 C14.8393708,13.8396286 16.8317374,14.2982373 16.7877881,14.327825 C17.5447784,14.441811 18.0873081,15.1250313 18.0330172,15.895971 L15.1030663,28.1156752 C15.0255346,28.3669047 14.8522563,28.5766891 14.6214227,28.6987911 C14.3905891,28.8208931 14.1211486,28.8452896 13.872487,28.7666037 C13.872487,28.7666037 11.7775721,28.2636135 11.7775721,28.2636135 L10.4444444,31.3703179 L13.9457357,32.2579477 L15.8648536,32.760938 L14.7514722,37.1990872 L17.4323773,37.8648096 L18.5311089,33.4266604 L20.6992725,34.0480013 L19.6005409,38.4861505 L22.2960957,39.1666667 L23.4094771,34.6545483 C27.9948502,35.5421782 31.4375425,35.1871262 32.8878682,31.0004721 C34.0598485,27.6274788 32.8878682,25.6746931 30.4267094,24.4172175 C32.3429309,24.031813 33.7621896,22.3921158 33.8840515,20.4228832 Z M27.7458044,29.1216556 C26.9107684,32.494649 21.2852627,30.6010387 19.4686931,30.2163991 L20.9336686,24.2988669 C22.7062889,24.6983003 28.5515409,25.5859301 27.6872053,29.1216556 L27.7458044,29.1216556 Z M28.5661906,20.3785017 C27.8190531,23.4408247 23.1311317,21.8578848 21.622207,21.5028329 L22.8967357,16.0882908 C24.4203101,16.4729304 29.2986783,17.1830343 28.5075916,20.3785017 L28.5661906,20.3785017 Z" id="Shape" fill="#FFFFFF"></path>
                    </g>
                </g>
            </g>
        </g>
    </g>
</svg>