<?xml version="1.0" encoding="UTF-8"?>
<svg width="47px" height="47px" viewBox="0 0 47 47" version="1.1" xmlns="http://www.w3.org/2000/svg" xmlns:xlink="http://www.w3.org/1999/xlink">
    <!-- Generator: Sketch 59.1 (86144) - https://sketch.com -->
    <title>aUSD</title>
    <desc>Created with Sketch.</desc>
    <g id="Web-App" stroke="none" stroke-width="1" fill="none" fill-rule="evenodd">
        <g id="Exchange---0" transform="translate(-832.000000, -301.000000)">
            <g id="Exchange" transform="translate(355.000000, 201.000000)">
                <g id="aUSD" transform="translate(477.000000, 100.000000)">
                    <path d="M46.7661692,23.3830846 C46.7661692,36.2973284 36.2973284,46.7661692 23.3830846,46.7661692 C10.4688408,46.7661692 1.20792265e-13,36.2973284 1.20792265e-13,23.3830846 C1.20792265e-13,10.4688408 10.4688408,7.10542736e-15 23.3830846,7.10542736e-15 C36.2973284,7.10542736e-15 46.7661692,10.4688408 46.7661692,23.3830846" id="Fill-504-Copy" fill="#EE4773"></path>
                    <g id="Acala-Logo-White-Copy" stroke-width="1" transform="translate(7.050000, 9.400000)" fill="#FFFFFF">
                        <path d="M6.26461379,27.5611241 C9.03616952,25.1354719 12.585513,23.7838394 16.2684828,23.751531 L16.3365517,23.751531 C19.5283844,23.7243615 22.6503916,24.6857717 25.2740069,26.5037862 L21.9227448,20.9107862 C20.4688985,20.4972022 18.9644098,20.2887121 17.4528828,20.2913586 L17.3916207,20.2913586 C14.8100545,20.2877918 12.2667854,20.9156248 9.98344828,22.1201448 C9.8565746,22.1893219 9.69899749,22.1641468 9.5999931,22.0588828 C9.50036345,21.9548983 9.48183731,21.7974261 9.55461379,21.6731586 L15.9077172,10.8501931 L14.0925448,7.79843448 L8.33164138,17.6117103 L2.57981379,27.5611241 L6.26461379,27.5611241 Z" id="Path" fill-rule="nonzero"></path>
                        <path d="M1.08002759,25.8798207 L2.00349655,27.2729655 L7.77574483,17.2895172 L13.8111931,7.00429655 C13.8678379,6.90618448 13.9724482,6.84566615 14.0857379,6.84546897 L14.0857379,6.84546897 C14.19913,6.84530854 14.3042587,6.90476655 14.3625517,7.00202759 L16.5634483,10.6800207 L16.5634483,10.6800207 L19.9668966,16.3524345 C19.9811141,16.3756929 19.9918181,16.4009238 19.9986621,16.4273103 C19.9997247,16.4340758 19.9997247,16.4409656 19.9986621,16.447731 C19.9997609,16.4688938 19.9997609,16.4900993 19.9986621,16.5112621 L19.9986621,16.5271448 C19.9965257,16.5532262 19.9919682,16.5790524 19.9850483,16.6042897 C19.9860638,16.6102976 19.9860638,16.6164334 19.9850483,16.6224414 C19.9850483,16.6428621 19.9668966,16.6632828 19.9555517,16.6837034 C19.9442069,16.7041241 19.9555517,16.6837034 19.9555517,16.6837034 L19.9555517,16.6837034 C19.9398498,16.7061768 19.921574,16.7267371 19.9010966,16.7449655 L19.9010966,16.7449655 L19.8647931,16.7721931 L19.8398345,16.7721931 L19.8262207,16.7721931 C19.7762104,16.7937056 19.7215911,16.8022886 19.6673931,16.7971517 L19.6673931,16.7971517 C18.883444,16.695182 18.0936837,16.6444008 17.303131,16.645131 C15.8210757,16.6471795 14.3457166,16.8439958 12.9149517,17.2305241 L10.6641379,21.0764207 C12.7819899,20.1374314 15.0726745,19.6513178 17.3893517,19.6492414 L17.4528828,19.6492414 C19.0654745,19.6480061 20.6699682,19.8772195 22.2177103,20.329931 C22.2958634,20.3530605 22.3623466,20.4049498 22.4037655,20.4751448 L26.646731,27.5633931 L30.5039724,27.5633931 L19.5698276,9.30275862 L14.1946483,0.322193103 L0,24.3845724 L1.08002759,25.8798207 Z" id="Path" fill-rule="nonzero"></path>
                        <polygon id="Path" fill-rule="nonzero" points="14.7596207 0.0136137931 31.0825586 27.2548138 32.8500828 24.2756621 18.2515586 0"></polygon>
                    </g>
                </g>
            </g>
        </g>
    </g>
</svg>