<?xml version="1.0" encoding="UTF-8"?>
<svg width="47px" height="47px" viewBox="0 0 47 47" version="1.1" xmlns="http://www.w3.org/2000/svg" xmlns:xlink="http://www.w3.org/1999/xlink">
    <!-- Generator: Sketch 59.1 (86144) - https://sketch.com -->
    <title>Icons / Crypto / Ethereum_O</title>
    <desc>Created with Sketch.</desc>
    <g id="Web-App" stroke="none" stroke-width="1" fill="none" fill-rule="evenodd">
        <g id="Group-4" transform="translate(-34.000000, -323.000000)" fill="#B6B7BA" fill-rule="nonzero">
            <g id="Group-2-Copy-3" transform="translate(34.000000, 319.000000)">
                <g id="Icons-/-Crypto-/-LTC_O" transform="translate(0.000000, 4.000000)">
                    <path d="M23.5,0 C10.52095,0 0,10.52095 0,23.5 C0,36.47905 10.52095,47 23.5,47 C36.47905,47 47,36.47905 47,23.5 C47,10.52095 36.47905,0 23.5,0 Z M34.917475,35.5414 L12.427975,35.5414 L14.60055,26.98975 L11.478575,28.149475 L12.500825,24.1251 L15.6275,22.965375 L19.235925,8.757275 L28.116575,8.757275 L25.430525,19.325225 L29.082425,17.969275 L28.060175,21.99365 L24.4071,23.3496 L22.7151,30.00715 L36.325125,30.00715 L34.917475,35.5414 Z" id="Shape"></path>
                </g>
            </g>
        </g>
    </g>
</svg>